<svg width="131" height="22" viewBox="0 0 131 22" fill="none" xmlns="http://www.w3.org/2000/svg">
<path d="M10.6151 21.8346C8.85889 21.8346 7.23881 21.3708 5.75491 20.4432C4.27101 19.5156 3.09235 18.2661 2.21891 16.6948C1.35487 15.1141 0.922852 13.3914 0.922852 11.5266C0.922852 9.65246 1.35487 7.92973 2.21891 6.35845C3.09235 4.7777 4.27101 3.52824 5.75491 2.61008C7.23881 1.68246 8.85889 1.21865 10.6151 1.21865C12.1742 1.21865 13.6252 1.58307 14.9682 2.31192C16.3206 3.04077 17.4523 4.03938 18.3633 5.30777L15.3486 6.94058C14.7663 6.22119 14.0619 5.65799 13.2354 5.25097C12.409 4.83449 11.5355 4.62625 10.6151 4.62625C9.46935 4.62625 8.41278 4.93861 7.44543 5.56334C6.47808 6.1786 5.71265 7.0163 5.14914 8.07645C4.58564 9.13659 4.30388 10.2867 4.30388 11.5266C4.30388 12.7666 4.58564 13.9167 5.14914 14.9768C5.72204 16.037 6.49216 16.8794 7.45952 17.5041C8.42687 18.1194 9.47874 18.427 10.6151 18.427C11.5449 18.427 12.4231 18.2188 13.2495 17.8023C14.076 17.3858 14.7757 16.8132 15.3486 16.0843L18.3633 17.7455C17.4523 19.0139 16.3206 20.0125 14.9682 20.7414C13.6252 21.4702 12.1742 21.8346 10.6151 21.8346Z" fill="white"/>
<path d="M25.9482 21.8346C24.6709 21.8346 23.4923 21.4986 22.4122 20.8266C21.3416 20.1545 20.4869 19.2505 19.8483 18.1147C19.219 16.9693 18.9044 15.7199 18.9044 14.3663C18.9044 13.0033 19.219 11.7491 19.8483 10.6037C20.4869 9.45842 21.3416 8.54972 22.4122 7.87767C23.4923 7.20561 24.6709 6.86959 25.9482 6.86959C27.2255 6.86959 28.3995 7.20561 29.4701 7.87767C30.5502 8.54972 31.4048 9.45842 32.0341 10.6037C32.6727 11.7491 32.992 13.0033 32.992 14.3663C32.992 15.7199 32.6727 16.9693 32.0341 18.1147C31.4048 19.2505 30.5502 20.1545 29.4701 20.8266C28.3995 21.4986 27.2255 21.8346 25.9482 21.8346ZM25.9482 18.427C26.6244 18.427 27.2396 18.2425 27.7937 17.8733C28.3572 17.5041 28.7986 17.0072 29.1179 16.3825C29.4466 15.7577 29.611 15.0857 29.611 14.3663C29.611 13.628 29.4466 12.9465 29.1179 12.3217C28.7892 11.697 28.3431 11.2001 27.7796 10.8309C27.2161 10.4618 26.6056 10.2772 25.9482 10.2772C25.2814 10.2772 24.6662 10.4665 24.1027 10.8451C23.5392 11.2143 23.0931 11.7112 22.7644 12.3359C22.4451 12.9607 22.2854 13.6375 22.2854 14.3663C22.2854 15.1141 22.4498 15.8003 22.7785 16.4251C23.1166 17.0403 23.5627 17.5278 24.1168 17.8875C24.6803 18.2472 25.2908 18.427 25.9482 18.427Z" fill="white"/>
<path d="M48.7506 21.4655H45.3696V19.6481C44.8906 20.3296 44.3036 20.8644 43.6086 21.2525C42.9136 21.6406 42.1247 21.8346 41.2419 21.8346C39.8989 21.8346 38.6592 21.4986 37.5228 20.8266C36.3957 20.1545 35.4988 19.2505 34.832 18.1147C34.1652 16.9693 33.8318 15.7199 33.8318 14.3663C33.8318 13.0127 34.1652 11.7633 34.832 10.6179C35.4988 9.47261 36.3957 8.56392 37.5228 7.89187C38.6592 7.21981 39.8989 6.88378 41.2419 6.88378C42.1247 6.88378 42.9136 7.07783 43.6086 7.46592C44.3036 7.854 44.8906 8.38881 45.3696 9.07033V0.167969H48.7506V21.4655ZM41.2842 18.5548C42.0073 18.5548 42.6553 18.3702 43.2282 18.0011C43.8105 17.6225 44.2613 17.1161 44.5807 16.4819C44.9094 15.8382 45.0737 15.133 45.0737 14.3663C45.0737 13.5901 44.9094 12.8849 44.5807 12.2508C44.2613 11.6071 43.8105 11.1007 43.2282 10.7315C42.6553 10.3529 42.0073 10.1636 41.2842 10.1636C40.5704 10.1636 39.9083 10.3529 39.2978 10.7315C38.6873 11.1102 38.199 11.6213 37.8327 12.265C37.4758 12.8991 37.2974 13.5996 37.2974 14.3663C37.2974 15.1236 37.4758 15.824 37.8327 16.4677C38.199 17.1113 38.6873 17.6225 39.2978 18.0011C39.9083 18.3702 40.5704 18.5548 41.2842 18.5548Z" fill="white"/>
<path d="M65.6624 21.4655H62.2813V19.6339C61.8024 20.3154 61.2107 20.855 60.5063 21.2525C59.8113 21.6406 59.0271 21.8346 58.1537 21.8346C56.8106 21.8346 55.5709 21.4986 54.4345 20.8266C53.3075 20.1545 52.4106 19.2505 51.7438 18.1147C51.077 16.9693 50.7436 15.7199 50.7436 14.3663C50.7436 13.0033 51.077 11.7491 51.7438 10.6037C52.4106 9.45842 53.3075 8.54972 54.4345 7.87767C55.5709 7.20561 56.8106 6.86959 58.1537 6.86959C59.0365 6.86959 59.8254 7.06836 60.5204 7.46592C61.2154 7.854 61.8024 8.38881 62.2813 9.07033V7.26714H65.6624V21.4655ZM58.1959 18.5548C58.9191 18.5548 59.5671 18.3655 60.14 17.9869C60.7223 17.6083 61.1731 17.1019 61.4924 16.4677C61.8211 15.824 61.9855 15.1236 61.9855 14.3663C61.9855 13.5901 61.8211 12.8849 61.4924 12.2508C61.1731 11.6071 60.7223 11.1007 60.14 10.7315C59.5671 10.3529 58.9191 10.1636 58.1959 10.1636C57.4728 10.1636 56.8059 10.3529 56.1955 10.7315C55.585 11.1007 55.1013 11.6071 54.7444 12.2508C54.3876 12.8944 54.2091 13.5996 54.2091 14.3663C54.2091 15.1236 54.3876 15.824 54.7444 16.4677C55.1107 17.1113 55.5991 17.6225 56.2096 18.0011C56.82 18.3702 57.4821 18.5548 58.1959 18.5548Z" fill="white"/>
<path d="M75.947 6.86959C77.2994 6.86959 78.5438 7.20561 79.6802 7.87767C80.8166 8.54972 81.7182 9.45842 82.3851 10.6037C83.0519 11.7396 83.3853 12.9843 83.3853 14.3379C83.3853 15.701 83.0519 16.9551 82.3851 18.1005C81.7182 19.2458 80.8166 20.1545 79.6802 20.8266C78.5438 21.4986 77.2994 21.8346 75.947 21.8346C75.083 21.8346 74.3034 21.6406 73.6085 21.2525C72.9135 20.855 72.3265 20.3154 71.8475 19.6339V21.4655H68.4665V0.167969H71.8475V9.07033C72.3265 8.38881 72.9135 7.854 73.6085 7.46592C74.3034 7.06836 75.083 6.86959 75.947 6.86959ZM75.9047 18.5264C76.6373 18.5264 77.3088 18.3418 77.9193 17.9727C78.5391 17.5941 79.0275 17.0829 79.3844 16.4393C79.7413 15.7956 79.9197 15.0952 79.9197 14.3379C79.9197 13.5807 79.7366 12.8802 79.3703 12.2366C79.0134 11.5929 78.525 11.0865 77.9052 10.7173C77.2947 10.3387 76.6279 10.1494 75.9047 10.1494C75.191 10.1494 74.5476 10.3387 73.9747 10.7173C73.4018 11.096 72.951 11.6071 72.6223 12.2508C72.303 12.8849 72.1433 13.5807 72.1433 14.3379C72.1433 15.1046 72.303 15.8098 72.6223 16.4535C72.951 17.0877 73.4018 17.5941 73.9747 17.9727C74.5476 18.3418 75.191 18.5264 75.9047 18.5264Z" fill="white"/>
<path d="M99.2867 21.4655H95.9057V19.6339C95.4267 20.3154 94.835 20.855 94.1306 21.2525C93.4356 21.6406 92.6514 21.8346 91.778 21.8346C90.435 21.8346 89.1953 21.4986 88.0588 20.8266C86.9318 20.1545 86.0349 19.2505 85.3681 18.1147C84.7013 16.9693 84.3679 15.7199 84.3679 14.3663C84.3679 13.0033 84.7013 11.7491 85.3681 10.6037C86.0349 9.45842 86.9318 8.54972 88.0588 7.87767C89.1953 7.20561 90.435 6.86959 91.778 6.86959C92.6608 6.86959 93.4497 7.06836 94.1447 7.46592C94.8397 7.854 95.4267 8.38881 95.9057 9.07033V7.26714H99.2867V21.4655ZM91.8203 18.5548C92.5434 18.5548 93.1914 18.3655 93.7643 17.9869C94.3466 17.6083 94.7974 17.1019 95.1168 16.4677C95.4455 15.824 95.6098 15.1236 95.6098 14.3663C95.6098 13.5901 95.4455 12.8849 95.1168 12.2508C94.7974 11.6071 94.3466 11.1007 93.7643 10.7315C93.1914 10.3529 92.5434 10.1636 91.8203 10.1636C91.0971 10.1636 90.4303 10.3529 89.8198 10.7315C89.2093 11.1007 88.7257 11.6071 88.3688 12.2508C88.0119 12.8944 87.8334 13.5996 87.8334 14.3663C87.8334 15.1236 88.0119 15.824 88.3688 16.4677C88.7351 17.1113 89.2234 17.6225 89.8339 18.0011C90.4444 18.3702 91.1065 18.5548 91.8203 18.5548Z" fill="white"/>
<path d="M112.121 21.4655V14.1675C112.121 13.4387 111.966 12.7666 111.656 12.1514C111.356 11.5361 110.933 11.0486 110.388 10.6889C109.844 10.3292 109.229 10.1494 108.543 10.1494C107.876 10.1494 107.289 10.3292 106.782 10.6889C106.275 11.0486 105.88 11.5361 105.599 12.1514C105.326 12.7572 105.19 13.4292 105.19 14.1675V21.4655H101.809V7.26714H105.19V8.97094C105.678 8.30835 106.251 7.79248 106.909 7.42332C107.576 7.05416 108.313 6.86959 109.121 6.86959C110.379 6.86959 111.487 7.19615 112.445 7.84927C113.413 8.49293 114.159 9.36849 114.685 10.476C115.211 11.574 115.483 12.7856 115.502 14.1107V21.4655H112.121Z" fill="white"/>
<path d="M126.771 21.4655L123.53 15.8429L121.53 18.2425V21.4655H118.149V0.167969H121.53V12.9465L126.249 7.26714H130.673L125.855 13.0601L130.673 21.4655H126.771Z" fill="white"/>
</svg>
