<svg width="44" height="42" viewBox="0 0 44 42" fill="none" xmlns="http://www.w3.org/2000/svg">
<path d="M7.30338 16.7231C7.19177 16.5049 7.13505 16.2552 7.13647 15.9884C7.13789 15.7216 7.19742 15.4428 7.31165 15.1679C7.54237 14.6129 7.98192 14.1076 8.53361 13.7633C9.0853 13.419 9.70394 13.2639 10.2534 13.332C10.8029 13.4002 11.2383 13.6861 11.4637 14.1267C11.9948 15.1509 12.3195 16.2963 12.4258 17.5204C12.537 18.7904 12.4116 20.1285 12.0546 21.4813C11.7026 22.8305 11.1248 24.1769 10.344 25.467C9.59041 26.7136 8.65697 27.8919 7.57824 28.9583C7.11722 29.4169 6.52506 29.7297 5.93201 29.8278C5.33897 29.9259 4.79362 29.8012 4.41595 29.4812C4.03827 29.1613 3.8592 28.6722 3.91813 28.1217C3.97706 27.5711 4.26917 27.0041 4.73018 26.5455C5.44145 25.8467 6.05796 25.074 6.55702 24.2559C7.08513 23.3957 7.47787 22.4968 7.71959 21.5948C7.95815 20.6981 8.04412 19.8107 7.97413 18.9677C7.89436 18.1557 7.66792 17.3979 7.30338 16.7231V16.7231ZM15.7878 12.6009C16.7871 15.2137 16.8774 18.2536 16.0487 21.3767C15.2466 24.4935 13.5598 27.5759 11.1784 30.2766C10.9664 30.516 10.7968 30.7806 10.6795 31.055C10.5621 31.3295 10.4992 31.6085 10.4944 31.8762C10.4896 32.1439 10.543 32.395 10.6514 32.6152C10.7599 32.8354 10.9214 33.0203 11.1267 33.1594C11.3319 33.2986 11.5769 33.3892 11.8477 33.4261C12.1185 33.463 12.4098 33.4455 12.7048 33.3745C12.9999 33.3036 13.2931 33.1806 13.5675 33.0126C13.842 32.8447 14.0924 32.635 14.3045 32.3955C17.2865 29.0189 19.3963 25.162 20.3943 21.2629C21.4418 17.3592 21.3385 13.5566 20.0962 10.2873C20.0075 10.0558 19.8643 9.85637 19.6747 9.70054C19.485 9.54472 19.2527 9.43551 18.991 9.37916C18.7292 9.3228 18.4432 9.3204 18.1492 9.3721C17.8552 9.42379 17.559 9.52857 17.2775 9.68044C16.996 9.83232 16.7347 10.0283 16.5086 10.2573C16.2825 10.4862 16.0959 10.7436 15.9595 11.0147C15.8232 11.2859 15.7397 11.5654 15.7139 11.8375C15.6881 12.1096 15.7205 12.3688 15.8091 12.6004L15.7878 12.6009ZM24.7624 8.42501C26.094 12.2636 26.1708 16.6671 24.9847 21.1836C23.8039 25.6966 21.404 30.1613 18.031 34.12C17.8236 34.3626 17.6597 34.6293 17.5486 34.9046C17.4375 35.18 17.3813 35.4586 17.3833 35.7247C17.3853 35.9908 17.4454 36.2391 17.5602 36.4554C17.675 36.6718 17.8423 36.8519 18.0525 36.9855C18.2627 37.1191 18.5116 37.2037 18.7851 37.2342C19.0587 37.2648 19.3514 37.2409 19.6466 37.1637C19.9419 37.0866 20.2338 36.9579 20.5058 36.7848C20.7778 36.6117 21.0245 36.3977 21.2319 36.155C25.1705 31.5451 27.9693 26.3402 29.3383 21.0799C30.7395 15.7996 30.6572 10.6489 29.0998 6.16184C28.93 5.68577 28.5386 5.34841 28.0118 5.224C27.4849 5.09958 26.8658 5.19828 26.2907 5.4984C25.7155 5.79851 25.2313 6.27545 24.9447 6.8243C24.6581 7.37314 24.5925 7.94894 24.7624 8.42501V8.42501ZM33.7184 4.19839C35.399 9.25905 35.4615 15.0338 33.8996 20.9502C32.3613 26.8625 29.2525 32.7167 24.881 37.9327C24.6782 38.1766 24.5193 38.4435 24.4134 38.7181C24.3074 38.9928 24.2565 39.2698 24.2636 39.5334C24.2707 39.797 24.3356 40.042 24.4546 40.2544C24.5736 40.4667 24.7444 40.6424 24.9572 40.7712C25.17 40.9001 25.4207 40.9796 25.6949 41.0053C25.9691 41.031 26.2615 41.0024 26.5554 40.921C26.8493 40.8396 27.1389 40.7072 27.4077 40.5311C27.6765 40.3551 27.9193 40.1389 28.1221 39.895C33.0342 34.031 36.5299 27.4512 38.264 20.8052C40.0254 14.1412 39.9574 7.63613 38.0666 1.93494C37.9112 1.45713 37.5346 1.1127 37.0195 0.977417C36.5045 0.842131 35.8932 0.927074 35.3202 1.21356C34.7472 1.50004 34.2593 1.9646 33.964 2.50504C33.6687 3.04547 33.5901 3.61751 33.7454 4.09532" fill="white"/>
</svg>
