<svg width="63" height="49" viewBox="0 0 63 49" fill="none" xmlns="http://www.w3.org/2000/svg">
<rect x="0.671027" y="1.089" width="61.4712" height="46.551" rx="8.95212" fill="url(#paint0_linear_298_906)" stroke="#666666" stroke-width="1.19362"/>
<path fill-rule="evenodd" clip-rule="evenodd" d="M40.2144 10.9769C38.0729 6.69984 34.7085 3.34141 32.4954 2.02906C32.3491 1.94442 32.2423 1.80511 32.1987 1.64178C32.1551 1.47845 32.1781 1.30448 32.2628 1.15813C32.3474 1.01179 32.4867 0.905068 32.65 0.861438C32.8134 0.817809 32.9873 0.840849 33.1337 0.925491C36.0328 2.62558 39.4032 6.52685 41.3359 10.3804C41.3824 10.4542 41.4122 10.5373 41.4231 10.6238C41.434 10.7104 41.4258 10.7983 41.3991 10.8813C41.3724 10.9644 41.3278 11.0405 41.2684 11.1045C41.209 11.1684 41.1364 11.2185 41.0555 11.2513C40.9694 11.2978 40.8731 11.3224 40.7752 11.3229C40.6588 11.323 40.5447 11.2907 40.4456 11.2296C40.3466 11.1685 40.2665 11.081 40.2144 10.9769ZM20.8273 31.4436C20.869 37.3731 26.4465 44.4419 30.2881 46.7266C30.3623 46.7653 30.4275 46.8192 30.4794 46.8847C30.5314 46.9502 30.569 47.0259 30.5898 47.1069C30.6106 47.1879 30.6142 47.2724 30.6002 47.3549C30.5863 47.4373 30.5552 47.5159 30.5089 47.5856C30.4526 47.6795 30.3731 47.7574 30.278 47.8117C30.183 47.866 30.0755 47.895 29.966 47.8958C29.8543 47.8961 29.7448 47.8651 29.6499 47.8063C25.5517 45.3904 19.9444 38.3275 19.5865 32.0044H0.700569C0.544229 31.9891 0.399159 31.9163 0.293612 31.7999C0.188064 31.6836 0.129597 31.5321 0.129597 31.375C0.129597 31.218 0.188064 31.0665 0.293612 30.9502C0.399159 30.8338 0.544229 30.761 0.700569 30.7457H19.7058C20.8961 26.5737 20.8961 22.1521 19.7058 17.9801H0.700569C0.53445 17.9801 0.375136 17.9141 0.257672 17.7967C0.140209 17.6792 0.0742188 17.5199 0.0742188 17.3538C0.0742188 17.1876 0.140209 17.0283 0.257672 16.9109C0.375136 16.7934 0.53445 16.7274 0.700569 16.7274H19.5865C19.9444 10.3804 25.5756 3.34141 29.6499 0.925491C29.7962 0.840849 29.9702 0.817809 30.1335 0.861438C30.2968 0.905068 30.4361 1.01179 30.5208 1.15813C30.6054 1.30448 30.6285 1.47845 30.5848 1.64178C30.5412 1.80511 30.4345 1.94442 30.2881 2.02906C26.4465 4.28392 20.869 11.3587 20.8273 17.2941C22.1936 21.9117 22.1936 26.8261 20.8273 31.4436ZM62.1129 30.7458H43.0719C41.8816 26.5739 41.8816 22.1522 43.0719 17.9802H62.1129C62.279 17.9802 62.4383 17.9142 62.5558 17.7968C62.6732 17.6793 62.7392 17.52 62.7392 17.3539C62.7392 17.1878 62.6732 17.0284 62.5558 16.911C62.4383 16.7935 62.279 16.7275 62.1129 16.7275H42.5887C42.4529 16.7291 42.3213 16.7747 42.2137 16.8576C42.1061 16.9404 42.0283 17.056 41.9921 17.1868C40.6053 21.838 40.6053 26.7926 41.9921 31.4438C41.9504 37.3732 36.3729 44.442 32.5313 46.7267C32.4552 46.7632 32.3877 46.8155 32.3333 46.88C32.2789 46.9446 32.2388 47.02 32.2157 47.1011C32.1925 47.1823 32.1869 47.2675 32.1992 47.351C32.2114 47.4346 32.2412 47.5146 32.2867 47.5857C32.343 47.6796 32.4225 47.7575 32.5175 47.8118C32.6126 47.8661 32.7201 47.8951 32.8295 47.8959C32.9412 47.8962 33.0508 47.8652 33.1457 47.8064C37.22 45.4203 42.8511 38.3276 43.2091 32.0045H62.1129C62.2692 31.9893 62.4143 31.9164 62.5198 31.8C62.6254 31.6837 62.6839 31.5322 62.6839 31.3752C62.6839 31.2181 62.6254 31.0666 62.5198 30.9503C62.4143 30.834 62.2692 30.7611 62.1129 30.7458ZM30.7685 4.34159C30.953 4.21837 31.1698 4.15259 31.3916 4.15259C31.689 4.15259 31.9743 4.27075 32.1846 4.48106C32.3949 4.69138 32.5131 4.97663 32.5131 5.27406C32.5131 5.49586 32.4473 5.71269 32.3241 5.89711C32.2008 6.08153 32.0257 6.22528 31.8208 6.31016C31.6158 6.39504 31.3903 6.41725 31.1728 6.37397C30.9553 6.3307 30.7554 6.22389 30.5986 6.06705C30.4418 5.91021 30.3349 5.71039 30.2917 5.49285C30.2484 5.2753 30.2706 5.04981 30.3555 4.84489C30.4404 4.63997 30.5841 4.46482 30.7685 4.34159Z" fill="#666666"/>
<defs>
<linearGradient id="paint0_linear_298_906" x1="-5.89386" y1="0.492187" x2="67.8119" y2="48.2368" gradientUnits="userSpaceOnUse">
<stop stop-color="#DDD9D6"/>
<stop offset="0.212761" stop-color="#8A868C"/>
<stop offset="0.548384" stop-color="#F2F3F3" stop-opacity="0.8"/>
<stop offset="0.914316" stop-color="#807C80"/>
<stop offset="1" stop-color="#A6A8AB"/>
</linearGradient>
</defs>
</svg>
