<svg width="94" height="60" viewBox="0 0 94 60" fill="none" xmlns="http://www.w3.org/2000/svg">
<rect x="0.552369" y="0.696666" width="76.2412" height="57.736" rx="11.1031" transform="matrix(0.999657 -0.0261769 -0.25342 0.967356 15.706 2.56064)" fill="url(#paint0_linear_298_752)" stroke="#666666" stroke-width="1.48041"/>
<path fill-rule="evenodd" clip-rule="evenodd" d="M31.5325 38.9818C29.7206 46.0945 34.414 54.3945 38.4589 57.0109C38.5387 57.0549 38.6025 57.1174 38.6464 57.1944C38.6902 57.2713 38.7131 57.3609 38.7134 57.4574C38.7138 57.5539 38.6916 57.6552 38.6484 57.7546C38.6052 57.8539 38.5419 57.9493 38.4626 58.0343C38.3633 58.1489 38.2403 58.2448 38.1053 58.3131C37.9704 58.3814 37.8281 58.4196 37.6921 58.4241C37.5535 58.4282 37.4274 58.3945 37.3282 58.327C33.0065 55.5615 28.2742 47.2696 29.8179 39.6948L6.40213 40.308C6.21308 40.2948 6.05612 40.212 5.96183 40.0759C5.86753 39.9397 5.84264 39.7599 5.89202 39.5715C5.94139 39.383 6.06148 39.1994 6.22891 39.0564C6.39634 38.9134 6.59912 38.8212 6.79774 38.7979L30.3614 38.1808C33.1485 33.1367 34.5382 27.8316 34.3738 22.8648L10.8101 23.4818C10.6041 23.4872 10.4274 23.4132 10.3186 23.2761C10.2099 23.139 10.1782 22.95 10.2304 22.7507C10.2826 22.5514 10.4145 22.3581 10.5971 22.2133C10.7796 22.0686 10.9979 21.9843 11.2038 21.9789L34.6196 21.3657C37.0583 13.739 46.2525 5.11091 52.0633 2.08004C52.2714 1.97373 52.4943 1.94044 52.6831 1.98749C52.8719 2.03453 53.0111 2.15805 53.07 2.33088C53.129 2.50372 53.1029 2.7117 52.9974 2.90908C52.892 3.10645 52.7159 3.27706 52.5078 3.38336C47.0361 6.21344 37.8972 14.8827 35.9798 22.0053C36.2225 27.5011 34.6778 33.3973 31.5325 38.9818ZM62.0024 13.798C60.6916 8.73592 57.5758 4.81575 55.2444 3.31306C55.0896 3.21626 55.001 3.05258 54.9983 2.85804C54.9955 2.66349 55.0788 2.45401 55.2297 2.27569C55.3807 2.09736 55.5869 1.96479 55.8031 1.90714C56.0194 1.84949 56.2278 1.87149 56.3827 1.96829C59.4428 3.91391 62.3953 8.48518 63.5804 13.0459C63.6149 13.1329 63.6257 13.2316 63.612 13.3351C63.5984 13.4386 63.5606 13.5443 63.5013 13.6448C63.4421 13.7453 63.3628 13.8382 63.2691 13.9168C63.1754 13.9954 63.0696 14.0579 62.959 14.0999C62.8376 14.1585 62.7105 14.1911 62.5889 14.1949C62.4446 14.1988 62.3133 14.1637 62.2097 14.0936C62.1061 14.0235 62.0343 13.9211 62.0024 13.798ZM82.9398 36.8045L59.3318 37.4227C59.1673 32.4558 60.5571 27.1508 63.3442 22.1066L86.9522 21.4884C87.1582 21.4831 87.3764 21.3987 87.559 21.254C87.7416 21.1092 87.8734 20.9159 87.9257 20.7166C87.9779 20.5173 87.9461 20.3283 87.8374 20.1912C87.7287 20.0541 87.5519 19.9801 87.3459 19.9855L63.1388 20.6194C62.97 20.6256 62.7925 20.6847 62.6331 20.7875C62.4736 20.8904 62.3409 21.0316 62.2549 21.1898C59.0735 26.8152 57.5162 32.7598 57.7738 38.2951C55.8583 45.4105 46.7213 54.0727 41.2401 56.9385C41.1343 56.9848 41.0342 57.0497 40.9464 57.1289C40.8587 57.2081 40.7853 57.2999 40.7311 57.398C40.6769 57.4962 40.6432 57.5986 40.6321 57.6984C40.6211 57.7982 40.6329 57.8932 40.6669 57.9771C40.7072 58.0879 40.7812 58.1788 40.882 58.2409C40.9828 58.303 41.1069 58.3342 41.2424 58.3316C41.3808 58.3284 41.5264 58.2877 41.6626 58.214C47.464 55.2189 56.6751 46.5264 59.1063 38.9283L82.5442 38.3146C82.7429 38.2912 82.9456 38.1991 83.1131 38.0561C83.2805 37.9131 83.4006 37.7295 83.45 37.541C83.4993 37.3525 83.4744 37.1727 83.3801 37.0366C83.2858 36.9004 83.1289 36.8177 82.9398 36.8045ZM52.3767 6.1436C52.6441 5.98976 52.9336 5.90381 53.2086 5.89661C53.5774 5.88695 53.8939 6.01945 54.0886 6.26496C54.2832 6.51046 54.3401 6.84886 54.2466 7.20572C54.1769 7.47184 54.0272 7.73411 53.8164 7.95938C53.6057 8.18466 53.3433 8.3628 53.0626 8.47129C52.7818 8.57978 52.4953 8.61375 52.2392 8.5689C51.9831 8.52404 51.7689 8.40238 51.6237 8.2193C51.4785 8.03622 51.4089 7.79994 51.4237 7.54034C51.4384 7.28074 51.5368 7.00948 51.7064 6.76086C51.8761 6.51224 52.1094 6.29743 52.3767 6.1436Z" fill="#666666"/>
<defs>
<linearGradient id="paint0_linear_298_752" x1="-7.40205" y1="-1.19192e-06" x2="84.0133" y2="59.2164" gradientUnits="userSpaceOnUse">
<stop stop-color="#DDD9D6"/>
<stop offset="0.212761" stop-color="#8A868C"/>
<stop offset="0.548384" stop-color="#F2F3F3" stop-opacity="0.8"/>
<stop offset="0.914316" stop-color="#807C80"/>
<stop offset="1" stop-color="#A6A8AB"/>
</linearGradient>
</defs>
</svg>
