<svg width="167" height="41" viewBox="0 0 167 41" fill="none" xmlns="http://www.w3.org/2000/svg">
<path d="M43.7963 32.083L43.4146 32.93C43.7968 32.5986 44.1565 32.3526 44.494 32.192C44.8325 32.0269 45.1871 31.9395 45.5576 31.9297C46.1231 31.9149 46.5685 32.026 46.8937 32.263C47.225 32.4954 47.4365 32.8247 47.5282 33.2508C48.0019 32.792 48.496 32.4398 49.0106 32.1942C49.5313 31.944 50.0597 31.8119 50.596 31.7978C51.1469 31.7834 51.5958 31.8899 51.9429 32.1174C52.2949 32.3448 52.5264 32.6624 52.6375 33.0701C52.7546 33.4733 52.7472 33.9265 52.6153 34.43C52.5706 34.6008 52.5094 34.7787 52.4319 34.9637L50.9368 38.5918L49.6205 38.6263L51.1479 34.9304C51.1992 34.8085 51.2437 34.6757 51.2814 34.5318C51.4027 34.0689 51.3718 33.697 51.1888 33.4161C51.0106 33.135 50.6924 33.0005 50.2342 33.0125C49.8637 33.0222 49.4934 33.1234 49.1234 33.3162C48.7545 33.5044 48.4222 33.7563 48.1265 34.0721C47.8356 34.3877 47.6157 34.7283 47.4667 35.0937L45.9715 38.7219L44.6552 38.7563L46.1754 35.0606C46.2231 34.9522 46.2647 34.8306 46.3 34.6958C46.3801 34.3901 46.3904 34.1198 46.3309 33.8848C46.2726 33.6452 46.1465 33.4611 45.9527 33.3322C45.7601 33.1989 45.5078 33.1363 45.1958 33.1445C44.8497 33.1535 44.4929 33.2588 44.1253 33.4604C43.7627 33.6619 43.4317 33.9272 43.1325 34.2564C42.8392 34.5811 42.6181 34.9261 42.4691 35.2916L40.9989 38.8521L39.6827 38.8865L42.4727 32.1177L43.7963 32.083Z" fill="white"/>
<path d="M55.6181 38.6433C55.0038 38.6594 54.4858 38.5391 54.0641 38.2823C53.6484 38.0209 53.3629 37.6601 53.2075 37.1999C53.0581 36.7351 53.0588 36.2151 53.2095 35.6397C53.2636 35.433 53.3218 35.2574 53.3838 35.1129C53.6473 34.4766 54.0515 33.8857 54.5962 33.3402C55.141 32.7948 55.7514 32.3592 56.4274 32.0335C57.1045 31.7033 57.7673 31.5297 58.4157 31.5127C59.03 31.4966 59.5455 31.617 59.9624 31.8739C60.3841 32.1307 60.6721 32.4915 60.8263 32.9561C60.9806 33.4208 60.9823 33.9408 60.8316 34.5161C60.7857 34.6914 60.724 34.8716 60.6464 35.0566C60.3841 35.6884 59.9805 36.2771 59.4358 36.8225C58.8971 37.3634 58.2867 37.799 57.6047 38.1293C56.9287 38.455 56.2665 38.6264 55.6181 38.6433ZM55.9726 37.4288C56.4162 37.4172 56.8692 37.296 57.3315 37.0651C57.7938 36.8343 58.2067 36.5333 58.5703 36.1622C58.9349 35.7867 59.2049 35.3845 59.3801 34.9559C59.4279 34.8475 59.4688 34.7281 59.503 34.5978C59.596 34.2427 59.5979 33.9212 59.5087 33.6334C59.4195 33.3456 59.2486 33.1202 58.9959 32.9572C58.7433 32.7942 58.4317 32.7175 58.0612 32.7272C57.6176 32.7388 57.1646 32.8601 56.7023 33.0909C56.2448 33.3216 55.8307 33.6271 55.46 34.0073C55.0953 34.3829 54.8254 34.785 54.6501 35.2137C54.6024 35.322 54.562 35.4392 54.529 35.565C54.4348 35.9246 54.4323 36.2483 54.5216 36.5361C54.6156 36.8238 54.7896 37.0469 55.0434 37.2054C55.2972 37.3639 55.6069 37.4384 55.9726 37.4288Z" fill="white"/>
<path d="M67.1148 31.2849C67.7632 31.2679 68.3099 31.3898 68.7548 31.6504C69.2058 31.9064 69.5151 32.2688 69.6828 32.7376C69.8565 33.2018 69.8675 33.7238 69.7156 34.3036C69.6649 34.4968 69.608 34.668 69.5448 34.8169C69.2812 35.4532 68.8698 36.0443 68.3104 36.5902C67.7522 37.1315 67.1175 37.5677 66.4062 37.8988C65.7009 38.2253 65.0046 38.3975 64.3172 38.4155C63.7712 38.4298 63.3362 38.3252 63.0123 38.1015C62.6945 37.8733 62.4905 37.5617 62.4003 37.1668L61.9061 38.3046L60.5898 38.3391L64.7821 28.1856L66.0984 28.1511L64.2342 32.6058C64.6487 32.2065 65.1041 31.8911 65.6006 31.6593C66.0982 31.4231 66.6029 31.2983 67.1148 31.2849ZM64.6482 37.2351C65.1162 37.2229 65.5936 37.101 66.0803 36.8695C66.5719 36.6379 67.0103 36.3318 67.3957 35.9512C67.7859 35.5705 68.0729 35.159 68.2565 34.7167C68.3161 34.5634 68.3547 34.453 68.3723 34.3856C68.4701 34.0126 68.4657 33.6779 68.3594 33.3816C68.253 33.0853 68.0589 32.856 67.777 32.6938C67.5012 32.5269 67.1634 32.4487 66.7636 32.4592C66.3005 32.4713 65.8426 32.5927 65.3901 32.8232C64.9424 33.0537 64.5429 33.3588 64.1917 33.7385C63.8404 34.1182 63.5724 34.5314 63.3876 34.9782C63.3351 35.1045 63.2894 35.2419 63.2506 35.3902C63.1552 35.7543 63.1454 36.0781 63.2212 36.3619C63.2981 36.6411 63.4562 36.8601 63.6954 37.019C63.9406 37.1733 64.2582 37.2453 64.6482 37.2351Z" fill="white"/>
<path d="M73.418 30.303C73.2279 30.3079 73.0829 30.2515 72.9831 30.1336C72.8833 30.0156 72.8563 29.869 72.9022 29.6938C72.9505 29.5095 73.0654 29.348 73.247 29.2093C73.4298 29.0662 73.6186 28.992 73.8136 28.9869C74.0086 28.9818 74.1555 29.0405 74.2541 29.1629C74.354 29.2808 74.3809 29.4274 74.335 29.6027C74.2879 29.7825 74.1705 29.944 73.9829 30.0873C73.8013 30.226 73.613 30.2979 73.418 30.303ZM73.5553 31.3037L70.7653 38.0726L69.449 38.1071L72.239 31.3382L73.5553 31.3037Z" fill="white"/>
<path d="M77.053 27.8642L78.3693 27.8298L74.1787 37.9765L72.8625 38.011L77.053 27.8642Z" fill="white"/>
<path d="M79.3977 38.0207C78.7835 38.0367 78.2655 37.9164 77.8437 37.6596C77.428 37.3982 77.1431 37.0351 76.9888 36.5705C76.8395 36.1057 76.8402 35.5856 76.9909 35.0103C77.045 34.8035 77.1031 34.6279 77.1652 34.4835C77.4287 33.8472 77.8323 33.2585 78.3758 32.7175C78.9206 32.1721 79.531 31.7365 80.207 31.4108C80.8842 31.0806 81.5469 30.907 82.1953 30.89C82.8242 30.8735 83.3446 30.9938 83.7566 31.2509C84.1735 31.5078 84.4517 31.8688 84.5913 32.3338C84.737 32.7943 84.7333 33.3166 84.5802 33.9009C84.5013 34.2021 84.3835 34.5132 84.2268 34.8342L78.3402 34.9884C78.246 35.3479 78.2398 35.6673 78.3216 35.9463C78.4083 36.2253 78.5743 36.4419 78.8195 36.5962C79.0659 36.746 79.3768 36.816 79.7522 36.8061C80.1812 36.7949 80.6123 36.6832 81.0456 36.4709C81.4837 36.2586 81.8852 35.9736 82.25 35.6158L83.4835 35.925C82.9345 36.542 82.2931 37.0409 81.559 37.4217C80.825 37.8025 80.1046 38.0021 79.3977 38.0207ZM83.3217 33.8535C83.4245 33.4982 83.4319 33.1744 83.3438 32.8821C83.2607 32.5896 83.0928 32.3619 82.8401 32.1989C82.5875 32.0359 82.2735 31.9593 81.8981 31.9691C81.4984 31.9796 81.0921 32.0795 80.6794 32.2689C80.2678 32.4537 79.888 32.7025 79.5398 33.0152C79.1964 33.3277 78.9204 33.6697 78.7118 34.0412L83.3217 33.8535Z" fill="white"/>
<g clip-path="url(#clip0_298_736)">
<path d="M31.9854 4.22656V4.22656C22.0883 4.48573 12.0311 12.4598 9.52216 22.0371L9.36707 22.6291C6.85808 32.2064 12.8473 39.7602 22.7444 39.501V39.501L31.9854 4.22656Z" fill="#EE9168"/>
<path d="M25.0859 30.5683C20.2711 30.6944 17.3884 26.901 18.6473 22.0956C19.9062 17.2901 24.8299 13.2923 29.6447 13.1662L25.0859 30.5683Z" fill="#FDEBD7"/>
<path d="M25.0855 30.5649C30.1678 30.4318 35.3084 26.4284 36.5673 21.6229C37.8261 16.8175 34.7267 13.0298 29.6444 13.1628L25.0855 30.5649Z" fill="#FCD2B0"/>
</g>
<path d="M52.6912 22.6612C51.0932 22.7031 49.7263 22.3327 48.5904 21.55C47.4546 20.7673 46.6708 19.6935 46.2391 18.3287C45.8181 16.9553 45.823 15.4464 46.2538 13.8019C46.6868 12.1492 47.4779 10.6197 48.627 9.21342C49.7869 7.79861 51.148 6.66868 52.7103 5.82364C54.2748 4.97024 55.856 4.52263 57.4539 4.48078C58.8725 4.44364 60.1085 4.73044 61.1621 5.34118C62.2243 5.9517 63.0233 6.80538 63.5591 7.90222L60.4389 9.41396C60.0753 8.79344 59.5645 8.31355 58.9065 7.97431C58.2508 7.62672 57.5041 7.46389 56.6667 7.48582C55.6242 7.51312 54.5907 7.81375 53.5662 8.38772C52.5439 8.95335 51.6539 9.71032 50.8963 10.6586C50.1386 11.607 49.6166 12.6279 49.3301 13.7214C49.0437 14.8149 49.0343 15.8224 49.3021 16.7438C49.5785 17.6651 50.0846 18.3897 50.8204 18.9175C51.5584 19.4371 52.4444 19.6833 53.4784 19.6562C54.3244 19.6341 55.1715 19.4295 56.0197 19.0425C56.8679 18.6555 57.6368 18.1339 58.3265 17.4775L60.6857 18.8706C59.5638 20.0108 58.3034 20.9184 56.9045 21.5934C55.5141 22.2682 54.1097 22.6241 52.6912 22.6612Z" fill="white"/>
<path d="M66.6423 22.2959C65.4801 22.3264 64.4853 22.0581 63.6579 21.4912C62.839 20.924 62.2702 20.1472 61.9515 19.1608C61.6436 18.1657 61.646 17.0714 61.9587 15.8777C62.2736 14.6757 62.8496 13.5622 63.6867 12.5372C64.5324 11.5119 65.52 10.6902 66.6494 10.072C67.7874 9.45365 68.9374 9.12924 70.0996 9.09881C71.2617 9.06838 72.2523 9.33674 73.0712 9.90389C73.8986 10.4708 74.4663 11.2518 74.7743 12.2468C75.0907 13.2416 75.0915 14.34 74.7766 15.5421C74.4639 16.7357 73.8847 17.8452 73.0391 18.8704C72.2041 19.8871 71.2176 20.7046 70.0797 21.323C68.9503 21.9412 67.8045 22.2655 66.6423 22.2959ZM67.4295 19.2909C68.0448 19.2748 68.6472 19.0973 69.2366 18.7586C69.8346 18.4196 70.351 17.9709 70.7859 17.4123C71.2293 16.8536 71.5341 16.257 71.7003 15.6226C71.8709 14.9715 71.8788 14.3744 71.724 13.8313C71.5693 13.2883 71.2782 12.8606 70.8508 12.5485C70.4233 12.2364 69.9105 12.0882 69.3123 12.1038C68.7056 12.1197 68.1022 12.3013 67.502 12.6487C66.904 12.9876 66.3833 13.4365 65.9399 13.9952C65.505 14.5538 65.2034 15.1544 65.035 15.7972C64.8622 16.4566 64.8532 17.0579 65.008 17.6009C65.1735 18.1355 65.4668 18.5547 65.8879 18.8587C66.3175 19.1625 66.8314 19.3065 67.4295 19.2909Z" fill="white"/>
<path d="M87.4748 21.4271L84.3985 21.5076L84.8184 19.905C84.2251 20.5174 83.5675 21.003 82.8455 21.3618C82.1235 21.7206 81.3608 21.9105 80.5576 21.9315C79.3356 21.9635 78.2853 21.6967 77.4065 21.1312C76.5364 20.5653 75.9291 19.7895 75.5848 18.8038C75.2427 17.8096 75.228 16.7157 75.5407 15.5221C75.8534 14.3284 76.4454 13.2186 77.3167 12.1927C78.1881 11.1668 79.2141 10.3441 80.3948 9.72455C81.584 9.10481 82.7896 8.77894 84.0116 8.74694C84.8148 8.72591 85.4878 8.87823 86.0305 9.20392C86.5732 9.5296 86.9837 9.98724 87.2621 10.5768L89.3187 2.72618L92.3951 2.64562L87.4748 21.4271ZM81.3538 19.0382C82.0117 19.021 82.644 18.8427 83.2506 18.5035C83.8678 18.1558 84.395 17.6985 84.8321 17.1316C85.2798 16.5561 85.5923 15.9303 85.7694 15.2542C85.9487 14.5697 85.9621 13.9518 85.8095 13.4003C85.6677 12.8403 85.3745 12.4045 84.93 12.0928C84.4962 11.7726 83.9503 11.6211 83.2923 11.6383C82.6429 11.6553 81.9967 11.838 81.3538 12.1864C80.7109 12.5349 80.1484 12.9973 79.6665 13.5736C79.1952 14.1414 78.871 14.7633 78.6939 15.4395C78.519 16.1073 78.5195 16.7207 78.6955 17.2798C78.8801 17.8387 79.2064 18.2778 79.6743 18.5972C80.1445 18.9082 80.7043 19.0552 81.3538 19.0382Z" fill="white"/>
<path d="M102.862 21.0242L99.7861 21.1047L100.209 19.4895C99.6159 20.1019 98.953 20.5918 98.2202 20.9592C97.4982 21.318 96.7398 21.5078 95.9451 21.5286C94.7232 21.5606 93.6728 21.2938 92.7941 20.7282C91.9239 20.1624 91.3167 19.3866 90.9724 18.4008C90.6302 17.4067 90.6155 16.3128 90.9282 15.1191C91.2431 13.9171 91.8362 12.8031 92.7076 11.7772C93.5789 10.7513 94.6049 9.9286 95.7856 9.30909C96.9748 8.68935 98.1804 8.36349 99.4024 8.33149C100.206 8.31045 100.878 8.46695 101.418 8.80098C101.961 9.12666 102.371 9.5843 102.65 10.1739L103.066 8.58373L106.143 8.50317L102.862 21.0242ZM96.7413 18.6352C97.3993 18.618 98.0326 18.4356 98.6414 18.0881C99.2587 17.7403 99.7858 17.283 100.223 16.7161C100.671 16.1407 100.982 15.5191 101.157 14.8513C101.336 14.1668 101.35 13.5488 101.197 12.9974C101.055 12.4374 100.762 12.0015 100.318 11.6899C99.8837 11.3696 99.3378 11.2181 98.6799 11.2353C98.0219 11.2526 97.3714 11.4354 96.7285 11.7838C96.0878 12.1239 95.5307 12.582 95.0573 13.1582C94.5839 13.7343 94.2586 14.3604 94.0815 15.0365C93.9065 15.7043 93.9071 16.3178 94.0831 16.8769C94.2676 17.4358 94.5939 17.8749 95.0619 18.1943C95.5321 18.5053 96.0919 18.6523 96.7413 18.6352Z" fill="white"/>
<path d="M115.592 7.90755C116.823 7.87532 117.877 8.142 118.756 8.70759C119.635 9.27317 120.245 10.053 120.587 11.0472C120.931 12.033 120.947 13.1227 120.635 14.3164C120.32 15.5184 119.727 16.6323 118.855 17.6582C117.984 18.6842 116.954 19.507 115.764 20.1267C114.575 20.7465 113.365 21.0724 112.135 21.1047C111.349 21.1252 110.684 20.9727 110.142 20.647C109.601 20.313 109.192 19.8512 108.913 19.2616L108.49 20.8768L105.414 20.9573L110.334 2.17587L113.41 2.09532L111.354 9.94597C111.947 9.33355 112.605 8.84794 113.327 8.48914C114.051 8.122 114.806 7.92813 115.592 7.90755ZM112.861 18.1883C113.527 18.1708 114.181 17.992 114.822 17.652C115.473 17.3033 116.035 16.8409 116.509 16.2648C116.982 15.6887 117.306 15.0667 117.481 14.3989C117.656 13.7311 117.651 13.1178 117.467 12.5589C117.291 11.9998 116.964 11.5649 116.485 11.2541C116.017 10.9347 115.454 10.7837 114.796 10.8009C114.146 10.8179 113.517 11.0002 112.909 11.3477C112.3 11.6953 111.772 12.1568 111.324 12.7322C110.887 13.2991 110.581 13.9164 110.406 14.5842C110.229 15.2603 110.211 15.8784 110.353 16.4384C110.506 16.9899 110.799 17.4257 111.232 17.7459C111.668 18.0578 112.211 18.2053 112.861 18.1883Z" fill="white"/>
<path d="M133.456 20.223L130.38 20.3036L130.803 18.6884C130.21 19.3008 129.547 19.7907 128.814 20.1581C128.092 20.5169 127.334 20.7067 126.539 20.7275C125.317 20.7595 124.267 20.4927 123.388 19.9271C122.518 19.3613 121.91 18.5855 121.566 17.5997C121.224 16.6056 121.209 15.5117 121.522 14.318C121.837 13.116 122.43 12.002 123.301 10.9761C124.173 9.95018 125.199 9.12747 126.379 8.50796C127.569 7.88823 128.774 7.56236 129.996 7.53036C130.799 7.50933 131.471 7.66582 132.012 7.99985C132.555 8.32553 132.965 8.78317 133.243 9.37277L133.66 7.7826L136.736 7.70205L133.456 20.223ZM127.335 17.8341C127.993 17.8169 128.626 17.6345 129.235 17.287C129.852 16.9392 130.38 16.4819 130.817 15.915C131.264 15.3395 131.576 14.7179 131.751 14.0501C131.93 13.3657 131.943 12.7477 131.791 12.1963C131.649 11.6363 131.356 11.2004 130.911 10.8887C130.478 10.5685 129.932 10.417 129.274 10.4342C128.616 10.4514 127.965 10.6343 127.322 10.9827C126.682 11.3228 126.125 11.7809 125.651 12.357C125.178 12.9332 124.852 13.5593 124.675 14.2354C124.5 14.9032 124.501 15.5167 124.677 16.0758C124.861 16.6347 125.188 17.0738 125.656 17.3931C126.126 17.7041 126.686 17.8511 127.335 17.8341Z" fill="white"/>
<path d="M145.134 19.9172L146.82 13.4814C146.988 12.8387 147.003 12.2497 146.863 11.7145C146.731 11.1791 146.46 10.7593 146.047 10.4551C145.634 10.1509 145.116 10.0069 144.492 10.0233C143.886 10.0392 143.31 10.2117 142.766 10.541C142.221 10.8703 141.75 11.3096 141.351 11.8589C140.963 12.3996 140.684 12.9955 140.514 13.6466L138.828 20.0824L135.751 20.1629L139.031 7.64195L142.108 7.56139L141.714 9.06391C142.311 8.46796 142.952 7.99938 143.635 7.65817C144.327 7.31674 145.041 7.1364 145.776 7.11716C146.921 7.08717 147.854 7.34875 148.574 7.90189C149.306 8.44646 149.783 9.2008 150.006 10.1649C150.231 11.1207 150.198 12.1826 149.909 13.3508L148.21 19.8367L145.134 19.9172Z" fill="white"/>
<path d="M158.463 19.5682L156.814 14.6871L154.439 16.8508L153.695 19.6931L150.618 19.7736L155.539 0.992147L158.615 0.911591L155.663 12.1805L161.269 7.05964L165.294 6.95424L159.572 12.1776L162.014 19.4752L158.463 19.5682Z" fill="white"/>
<defs>
<clipPath id="clip0_298_736">
<rect width="36.3373" height="36.4648" fill="white" transform="matrix(0.999657 -0.0261769 -0.25342 0.967356 9.52539 4.81641)"/>
</clipPath>
</defs>
</svg>
