<svg width="129" height="30" viewBox="0 0 129 30" fill="none" xmlns="http://www.w3.org/2000/svg">
<path d="M34.6192 24.0167L34.4881 24.7191C34.7305 24.4494 34.9729 24.2509 35.2152 24.1235C35.4576 23.9924 35.7298 23.9268 36.0318 23.9268C36.4927 23.9268 36.8821 24.0298 37.1999 24.2359C37.5218 24.4382 37.7661 24.7191 37.933 25.0788C38.2231 24.7042 38.5529 24.4194 38.9224 24.2246C39.2959 24.0261 39.7012 23.9268 40.1382 23.9268C40.5872 23.9268 40.9786 24.0261 41.3124 24.2246C41.6501 24.4232 41.9084 24.6948 42.0872 25.0395C42.2699 25.3804 42.3613 25.7606 42.3613 26.1802C42.3613 26.3225 42.3494 26.4705 42.3256 26.6241L41.8786 29.6361H40.8058L41.2647 26.5679C41.2806 26.4668 41.2885 26.3563 41.2885 26.2364C41.2885 25.8505 41.1832 25.5377 40.9726 25.2979C40.766 25.0582 40.476 24.9383 40.1025 24.9383C39.8005 24.9383 39.5184 25.0151 39.2561 25.1687C38.9939 25.3185 38.7754 25.5227 38.6005 25.7812C38.4297 26.0397 38.3224 26.3207 38.2787 26.6241L37.8317 29.6361H36.7589L37.2119 26.5679C37.2277 26.478 37.2357 26.3769 37.2357 26.2645C37.2357 26.0097 37.186 25.7831 37.0867 25.5845C36.9874 25.3822 36.8443 25.2249 36.6576 25.1125C36.4708 24.9964 36.2503 24.9383 35.996 24.9383C35.7139 24.9383 35.4437 25.0188 35.1854 25.1799C34.9311 25.341 34.7166 25.5564 34.5417 25.8262C34.3709 26.0921 34.2636 26.3769 34.2199 26.6803L33.7789 29.6361H32.7061L33.5405 24.0167H34.6192Z" fill="white"/>
<path d="M45.7315 29.7822C45.2308 29.7822 44.7798 29.6698 44.3785 29.445C43.9812 29.2165 43.6693 28.9075 43.4428 28.5178C43.2203 28.1245 43.109 27.6881 43.109 27.2085C43.109 27.0362 43.119 26.8901 43.1388 26.7702C43.2183 26.242 43.4229 25.755 43.7527 25.3092C44.0825 24.8634 44.4898 24.5112 44.9745 24.2527C45.4593 23.9905 45.9659 23.8594 46.4943 23.8594C46.995 23.8594 47.444 23.9718 47.8413 24.1965C48.2426 24.4213 48.5565 24.7304 48.783 25.1237C49.0095 25.5171 49.1227 25.9535 49.1227 26.4331C49.1227 26.5792 49.1108 26.729 49.087 26.8826C49.0075 27.4071 48.8029 27.8922 48.4731 28.338C48.1473 28.7801 47.74 29.1322 47.2513 29.3945C46.7665 29.653 46.2599 29.7822 45.7315 29.7822ZM45.7613 28.7707C46.1228 28.7707 46.4685 28.6789 46.7983 28.4954C47.1281 28.3118 47.4023 28.0683 47.6208 27.7649C47.8393 27.4577 47.9744 27.1261 48.0261 26.7702C48.042 26.6803 48.0499 26.581 48.0499 26.4724C48.0499 26.1764 47.9824 25.9067 47.8473 25.6632C47.7122 25.4197 47.5235 25.2268 47.2811 25.0844C47.0387 24.942 46.7665 24.8709 46.4645 24.8709C46.103 24.8709 45.7573 24.9627 45.4275 25.1462C45.1017 25.3298 44.8275 25.577 44.605 25.888C44.3865 26.1952 44.2514 26.5267 44.1997 26.8826C44.1838 26.9725 44.1759 27.0699 44.1759 27.1748C44.1759 27.4745 44.2434 27.7461 44.3785 27.9896C44.5176 28.2331 44.7083 28.4242 44.9507 28.5628C45.1931 28.7014 45.4633 28.7707 45.7613 28.7707Z" fill="white"/>
<path d="M53.5845 23.8594C54.1129 23.8594 54.5878 23.9736 55.0089 24.2022C55.4341 24.4269 55.7659 24.7379 56.0043 25.135C56.2466 25.5283 56.3678 25.9666 56.3678 26.4499C56.3678 26.611 56.3579 26.7534 56.338 26.877C56.2586 27.4052 56.048 27.8922 55.7063 28.338C55.3645 28.7801 54.9374 29.1322 54.4248 29.3945C53.9163 29.653 53.3818 29.7822 52.8216 29.7822C52.3766 29.7822 51.9971 29.6848 51.6832 29.49C51.3733 29.2915 51.1389 29.0255 50.9799 28.692L50.819 29.6361H49.7462L51.0038 21.207H52.0766L51.5044 24.9046C51.7587 24.5787 52.0647 24.3239 52.4223 24.1403C52.7799 23.953 53.1673 23.8594 53.5845 23.8594ZM52.8395 28.7988C53.2209 28.7988 53.5865 28.707 53.9361 28.5235C54.2898 28.3399 54.5838 28.0926 54.8182 27.7817C55.0566 27.4708 55.2036 27.1317 55.2593 26.7646C55.2751 26.6372 55.2831 26.5454 55.2831 26.4893C55.2831 26.1783 55.2076 25.8973 55.0566 25.6463C54.9056 25.3953 54.697 25.1987 54.4308 25.0563C54.1686 24.9102 53.8745 24.8372 53.5487 24.8372C53.1712 24.8372 52.8216 24.9289 52.4998 25.1125C52.1819 25.2961 51.9196 25.5433 51.713 25.8543C51.5064 26.1652 51.3753 26.5061 51.3197 26.877C51.3038 26.9819 51.2958 27.0961 51.2958 27.2198C51.2958 27.5232 51.3574 27.7948 51.4806 28.0346C51.6038 28.2706 51.7806 28.4579 52.011 28.5965C52.2455 28.7314 52.5216 28.7988 52.8395 28.7988Z" fill="white"/>
<path d="M58.5462 23.1738C58.3913 23.1738 58.2601 23.1232 58.1529 23.0221C58.0456 22.9209 57.9919 22.7973 57.9919 22.6512C57.9919 22.4976 58.0515 22.3646 58.1707 22.2522C58.2899 22.1361 58.429 22.078 58.5879 22.078C58.7469 22.078 58.88 22.1305 58.9873 22.2354C59.0945 22.3365 59.1482 22.4602 59.1482 22.6063C59.1482 22.7561 59.0866 22.8891 58.9634 23.0052C58.8442 23.1176 58.7052 23.1738 58.5462 23.1738ZM58.874 24.0167L58.0396 29.6361H56.9668L57.8012 24.0167H58.874Z" fill="white"/>
<path d="M61.005 21.207H62.0778L60.8203 29.6305H59.7474L61.005 21.207Z" fill="white"/>
<path d="M65.1128 29.7822C64.6122 29.7822 64.1612 29.6698 63.7599 29.445C63.3625 29.2165 63.0506 28.9056 62.8241 28.5122C62.6016 28.1189 62.4904 27.6824 62.4904 27.2029C62.4904 27.0306 62.5003 26.8845 62.5202 26.7646C62.5996 26.2364 62.8043 25.7512 63.1341 25.3092C63.4639 24.8634 63.8711 24.5112 64.3559 24.2527C64.8406 23.9905 65.3472 23.8594 65.8757 23.8594C66.3882 23.8594 66.8412 23.9718 67.2346 24.1965C67.6319 24.4213 67.9379 24.7304 68.1524 25.1237C68.371 25.5134 68.4802 25.9517 68.4802 26.4387C68.4802 26.6897 68.4504 26.9482 68.3908 27.2142H63.593C63.593 27.5139 63.6566 27.7817 63.7837 28.0177C63.9148 28.2537 64.0976 28.4392 64.332 28.574C64.5665 28.7052 64.8366 28.7707 65.1426 28.7707C65.4923 28.7707 65.822 28.6864 66.132 28.5178C66.4459 28.3493 66.7141 28.1189 66.9366 27.8267L68.0153 28.1133C67.6975 28.619 67.2783 29.0236 66.7578 29.327C66.2373 29.6305 65.6889 29.7822 65.1128 29.7822ZM67.4372 26.3712C67.4452 26.0753 67.3816 25.8037 67.2465 25.5564C67.1154 25.3092 66.9286 25.1144 66.6863 24.972C66.4439 24.8297 66.1697 24.7585 65.8638 24.7585C65.5379 24.7585 65.226 24.8334 64.928 24.9833C64.63 25.1294 64.3718 25.3298 64.1532 25.5845C63.9387 25.8393 63.7857 26.1202 63.6943 26.4274L67.4372 26.3712Z" fill="white"/>
<g clip-path="url(#clip0_298_931)">
<path d="M18.9395 0.382812C10.8729 0.382812 4.33372 7.01659 4.33372 15.0831C4.33372 23.1496 10.8729 29.7834 18.9395 29.7834L18.9395 0.382812Z" fill="#A3291C"/>
<path d="M18.9395 22.3363C15.0152 22.3363 11.834 19.0894 11.834 15.0842C11.834 11.0789 15.0152 7.83203 18.9395 7.83203L18.9395 22.3363Z" fill="#F6B187"/>
<path d="M18.9392 22.3363C23.0815 22.3363 26.4395 19.0894 26.4395 15.0842C26.4395 11.0789 23.0815 7.83203 18.9392 7.83203L18.9392 22.3363Z" fill="#E36139"/>
</g>
<path d="M39.8937 16.3081C38.5913 16.3081 37.3899 15.9672 36.2894 15.2854C35.189 14.6036 34.3149 13.6852 33.6672 12.5303C33.0264 11.3684 32.7061 10.1022 32.7061 8.73161C32.7061 7.35406 33.0264 6.08782 33.6672 4.93291C34.3149 3.77103 35.189 2.85267 36.2894 2.1778C37.3899 1.49599 38.5913 1.15508 39.8937 1.15508C41.0498 1.15508 42.1259 1.42293 43.1218 1.95865C44.1248 2.49436 44.964 3.22836 45.6396 4.16064L43.4039 5.36078C42.9721 4.83203 42.4497 4.41806 41.8368 4.1189C41.2239 3.81278 40.5762 3.65972 39.8937 3.65972C39.044 3.65972 38.2604 3.88931 37.5431 4.34849C36.8257 4.80072 36.2581 5.41644 35.8402 6.19566C35.4223 6.97488 35.2134 7.8202 35.2134 8.73161C35.2134 9.64302 35.4223 10.4883 35.8402 11.2676C36.265 12.0468 36.8362 12.666 37.5535 13.1252C38.2709 13.5774 39.0509 13.8035 39.8937 13.8035C40.5832 13.8035 41.2344 13.6504 41.8473 13.3443C42.4602 13.0382 42.9791 12.6173 43.4039 12.0816L45.6396 13.3026C44.964 14.2349 44.1248 14.9689 43.1218 15.5046C42.1259 16.0403 41.0498 16.3081 39.8937 16.3081Z" fill="white"/>
<path d="M51.2644 16.3081C50.3172 16.3081 49.4431 16.0612 48.6422 15.5672C47.8482 15.0732 47.2144 14.4088 46.7408 13.5739C46.2742 12.7321 46.0408 11.8137 46.0408 10.8188C46.0408 9.81695 46.2742 8.89511 46.7408 8.05327C47.2144 7.21143 47.8482 6.54353 48.6422 6.04956C49.4431 5.55559 50.3172 5.3086 51.2644 5.3086C52.2116 5.3086 53.0822 5.55559 53.8762 6.04956C54.6771 6.54353 55.3109 7.21143 55.7776 8.05327C56.2512 8.89511 56.488 9.81695 56.488 10.8188C56.488 11.8137 56.2512 12.7321 55.7776 13.5739C55.3109 14.4088 54.6771 15.0732 53.8762 15.5672C53.0822 16.0612 52.2116 16.3081 51.2644 16.3081ZM51.2644 13.8035C51.7659 13.8035 52.2221 13.6678 52.633 13.3965C53.0509 13.1252 53.3782 12.7599 53.615 12.3007C53.8588 11.8415 53.9807 11.3476 53.9807 10.8188C53.9807 10.2761 53.8588 9.77521 53.615 9.31603C53.3712 8.85684 53.0404 8.49158 52.6225 8.22025C52.2046 7.94891 51.7519 7.81324 51.2644 7.81324C50.7699 7.81324 50.3137 7.95239 49.8958 8.23068C49.4779 8.50202 49.1471 8.86728 48.9034 9.32646C48.6665 9.78565 48.5481 10.2831 48.5481 10.8188C48.5481 11.3684 48.67 11.8728 48.9138 12.332C49.1645 12.7843 49.4954 13.1426 49.9063 13.4069C50.3242 13.6713 50.7769 13.8035 51.2644 13.8035Z" fill="white"/>
<path d="M68.1742 16.0368H65.6669V14.701C65.3117 15.2019 64.8764 15.595 64.361 15.8803C63.8456 16.1655 63.2606 16.3081 62.6059 16.3081C61.6099 16.3081 60.6906 16.0612 59.8479 15.5672C59.0121 15.0732 58.347 14.4088 57.8525 13.5739C57.358 12.7321 57.1107 11.8137 57.1107 10.8188C57.1107 9.82391 57.358 8.90554 57.8525 8.06371C58.347 7.22187 59.0121 6.55397 59.8479 6.06C60.6906 5.56602 61.6099 5.31904 62.6059 5.31904C63.2606 5.31904 63.8456 5.46166 64.361 5.74691C64.8764 6.03217 65.3117 6.42525 65.6669 6.92618V0.382812H68.1742V16.0368ZM62.6372 13.8974C63.1735 13.8974 63.6541 13.7618 64.0789 13.4904C64.5108 13.2121 64.8451 12.8399 65.0819 12.3738C65.3256 11.9007 65.4475 11.3824 65.4475 10.8188C65.4475 10.2483 65.3256 9.72999 65.0819 9.26385C64.8451 8.79075 64.5108 8.41853 64.0789 8.14719C63.6541 7.8689 63.1735 7.72975 62.6372 7.72975C62.1079 7.72975 61.6169 7.8689 61.1642 8.14719C60.7115 8.42549 60.3493 8.80118 60.0777 9.27428C59.813 9.74042 59.6807 10.2553 59.6807 10.8188C59.6807 11.3754 59.813 11.8902 60.0777 12.3633C60.3493 12.8364 60.7115 13.2121 61.1642 13.4904C61.6169 13.7618 62.1079 13.8974 62.6372 13.8974Z" fill="white"/>
<path d="M80.7157 16.0368H78.2084V14.6906C77.8532 15.1915 77.4144 15.5881 76.892 15.8803C76.3766 16.1655 75.7951 16.3081 75.1474 16.3081C74.1514 16.3081 73.232 16.0612 72.3893 15.5672C71.5535 15.0732 70.8884 14.4088 70.3939 13.5739C69.8994 12.7321 69.6522 11.8137 69.6522 10.8188C69.6522 9.81695 69.8994 8.89511 70.3939 8.05327C70.8884 7.21143 71.5535 6.54353 72.3893 6.04956C73.232 5.55559 74.1514 5.3086 75.1474 5.3086C75.802 5.3086 76.3871 5.45471 76.9025 5.74691C77.4179 6.03217 77.8532 6.42525 78.2084 6.92618V5.60081H80.7157V16.0368ZM75.1787 13.8974C75.715 13.8974 76.1956 13.7583 76.6204 13.48C77.0522 13.2017 77.3865 12.8295 77.6233 12.3633C77.8671 11.8902 77.989 11.3754 77.989 10.8188C77.989 10.2483 77.8671 9.72999 77.6233 9.26385C77.3865 8.79075 77.0522 8.41853 76.6204 8.14719C76.1956 7.8689 75.715 7.72975 75.1787 7.72975C74.6424 7.72975 74.1479 7.8689 73.6952 8.14719C73.2425 8.41853 72.8838 8.79075 72.6191 9.26385C72.3545 9.73694 72.2222 10.2553 72.2222 10.8188C72.2222 11.3754 72.3545 11.8902 72.6191 12.3633C72.8908 12.8364 73.2529 13.2121 73.7057 13.4904C74.1584 13.7618 74.6494 13.8974 75.1787 13.8974Z" fill="white"/>
<path d="M88.3426 5.3086C89.3455 5.3086 90.2683 5.55559 91.1111 6.04956C91.9538 6.54353 92.6224 7.21143 93.1169 8.05327C93.6114 8.88815 93.8587 9.80304 93.8587 10.7979C93.8587 11.7998 93.6114 12.7216 93.1169 13.5635C92.6224 14.4053 91.9538 15.0732 91.1111 15.5672C90.2683 16.0612 89.3455 16.3081 88.3426 16.3081C87.7018 16.3081 87.1237 16.1655 86.6083 15.8803C86.093 15.5881 85.6577 15.1915 85.3025 14.6906V16.0368H82.7951V0.382812H85.3025V6.92618C85.6577 6.42525 86.093 6.03217 86.6083 5.74691C87.1237 5.45471 87.7018 5.3086 88.3426 5.3086ZM88.3112 13.8766C88.8545 13.8766 89.3525 13.7409 89.8052 13.4696C90.2648 13.1913 90.627 12.8156 90.8917 12.3425C91.1563 11.8694 91.2887 11.3545 91.2887 10.7979C91.2887 10.2414 91.1528 9.72651 90.8812 9.25341C90.6166 8.78031 90.2544 8.40809 89.7947 8.13676C89.342 7.85847 88.8475 7.71932 88.3112 7.71932C87.7819 7.71932 87.3048 7.85847 86.88 8.13676C86.4551 8.41505 86.1208 8.79075 85.877 9.26385C85.6402 9.72999 85.5218 10.2414 85.5218 10.7979C85.5218 11.3615 85.6402 11.8798 85.877 12.3529C86.1208 12.819 86.4551 13.1913 86.88 13.4696C87.3048 13.7409 87.7819 13.8766 88.3112 13.8766Z" fill="white"/>
<path d="M105.651 16.0368H103.144V14.6906C102.788 15.1915 102.35 15.5881 101.827 15.8803C101.312 16.1655 100.73 16.3081 100.083 16.3081C99.0866 16.3081 98.1672 16.0612 97.3245 15.5672C96.4887 15.0732 95.8236 14.4088 95.3291 13.5739C94.8346 12.7321 94.5873 11.8137 94.5873 10.8188C94.5873 9.81695 94.8346 8.89511 95.3291 8.05327C95.8236 7.21143 96.4887 6.54353 97.3245 6.04956C98.1672 5.55559 99.0866 5.3086 100.083 5.3086C100.737 5.3086 101.322 5.45471 101.838 5.74691C102.353 6.03217 102.788 6.42525 103.144 6.92618V5.60081H105.651V16.0368ZM100.114 13.8974C100.65 13.8974 101.131 13.7583 101.556 13.48C101.987 13.2017 102.322 12.8295 102.559 12.3633C102.802 11.8902 102.924 11.3754 102.924 10.8188C102.924 10.2483 102.802 9.72999 102.559 9.26385C102.322 8.79075 101.987 8.41853 101.556 8.14719C101.131 7.8689 100.65 7.72975 100.114 7.72975C99.5776 7.72975 99.0831 7.8689 98.6304 8.14719C98.1777 8.41853 97.819 8.79075 97.5543 9.26385C97.2897 9.73694 97.1573 10.2553 97.1573 10.8188C97.1573 11.3754 97.2897 11.8902 97.5543 12.3633C97.826 12.8364 98.1881 13.2121 98.6408 13.4904C99.0935 13.7618 99.5845 13.8974 100.114 13.8974Z" fill="white"/>
<path d="M115.169 16.0368V10.6727C115.169 10.137 115.054 9.64302 114.824 9.19079C114.601 8.73857 114.288 8.38027 113.884 8.11589C113.48 7.85151 113.024 7.71932 112.515 7.71932C112.021 7.71932 111.585 7.85151 111.209 8.11589C110.833 8.38027 110.541 8.73857 110.332 9.19079C110.13 9.63606 110.029 10.13 110.029 10.6727V16.0368H107.521V5.60081H110.029V6.85313C110.391 6.36612 110.816 5.98694 111.303 5.71561C111.798 5.44427 112.344 5.3086 112.943 5.3086C113.877 5.3086 114.699 5.54863 115.409 6.02869C116.126 6.50179 116.68 7.14534 117.07 7.95935C117.46 8.7664 117.662 9.65693 117.676 10.631V16.0368H115.169Z" fill="white"/>
<path d="M126.032 16.0368L123.63 11.9042L122.146 13.6678V16.0368H119.639V0.382812H122.146V9.77521L125.646 5.60081H128.926L125.353 9.8587L128.926 16.0368H126.032Z" fill="white"/>
<defs>
<clipPath id="clip0_298_931">
<rect width="29.6062" height="29.4006" fill="white" transform="translate(0.632812 0.382812)"/>
</clipPath>
</defs>
</svg>
