<svg width="316" height="250" viewBox="0 0 316 250" fill="none" xmlns="http://www.w3.org/2000/svg">
<g opacity="0.1" clip-path="url(#clip0_298_737)">
<path d="M159.635 4.21875C228.11 2.42566 269.548 54.6885 252.189 120.951L251.339 124.194C233.981 190.456 164.398 245.627 95.923 247.42L159.635 4.21875Z" fill="#A3291C"/>
<path d="M112.06 185.809C145.372 184.936 179.414 157.371 188.093 124.24C196.772 91.1082 176.804 64.9571 143.491 65.8295L112.06 185.809Z" fill="#E56C43"/>
<path d="M112.062 185.808C76.8992 186.729 55.4301 160.617 64.1096 127.486C72.7891 94.3543 108.33 66.7497 143.493 65.8289L112.062 185.808Z" fill="#A3291C"/>
</g>
<defs>
<clipPath id="clip0_298_737">
<rect width="251.408" height="251.408" fill="white" transform="matrix(-0.999657 0.0261769 -0.25342 0.967356 315.033 0.148438)"/>
</clipPath>
</defs>
</svg>
