<svg width="316" height="251" viewBox="0 0 316 251" fill="none" xmlns="http://www.w3.org/2000/svg">
<g opacity="0.1" clip-path="url(#clip0_298_732)">
<path d="M219.688 3.00391C151.212 4.79699 81.6299 59.967 64.271 126.23L63.4215 129.472C46.0625 195.735 87.5004 247.998 155.976 246.205L219.688 3.00391Z" fill="#A3291C"/>
<path d="M172.119 184.595C138.807 185.467 118.838 159.316 127.518 126.185C136.197 93.0535 170.238 65.4882 203.551 64.6159L172.119 184.595Z" fill="#E56C43"/>
<path d="M172.118 184.596C207.28 183.675 242.822 156.07 251.501 122.939C260.181 89.8075 238.712 63.6957 203.549 64.6164L172.118 184.596Z" fill="#A3291C"/>
</g>
<defs>
<clipPath id="clip0_298_732">
<rect width="251.408" height="251.408" fill="white" transform="matrix(0.999657 -0.0261769 -0.25342 0.967356 64.2891 7.07422)"/>
</clipPath>
</defs>
</svg>
