<svg width="28" height="35" viewBox="0 0 28 35" fill="none" xmlns="http://www.w3.org/2000/svg">
<path d="M1.30071 13.2782C1.16364 13.0926 1.06447 12.8818 1.00885 12.6579C0.953234 12.434 0.942263 12.2013 0.976565 11.9732C1.04584 11.5124 1.29531 11.0981 1.6701 10.8213C2.04489 10.5444 2.5143 10.4278 2.97506 10.4971C3.43581 10.5664 3.85018 10.8159 4.127 11.1906C4.77619 12.0619 5.28357 13.0302 5.63035 14.0599C5.99087 15.1282 6.1737 16.2484 6.17155 17.3758C6.17276 18.5004 5.98995 19.6177 5.63035 20.6832C5.28357 21.7129 4.77619 22.6812 4.127 23.5525C3.85018 23.9272 3.43581 24.1767 2.97506 24.246C2.5143 24.3153 2.04489 24.1987 1.6701 23.9219C1.29531 23.645 1.04584 23.2307 0.976565 22.7699C0.90729 22.3091 1.02389 21.8397 1.30071 21.465C1.72966 20.8941 2.06596 20.2592 2.29721 19.5836C2.54309 18.8733 2.67078 18.1275 2.6752 17.3758C2.67815 16.6285 2.55918 15.8857 2.32298 15.1767C2.08544 14.4935 1.74034 13.8525 1.30071 13.2782ZM7.3141 10.0052C8.68147 12.2198 9.40161 14.7731 9.39301 17.3758C9.40471 19.974 8.69065 22.5238 7.33128 24.738C7.21001 24.9342 7.12858 25.1525 7.09166 25.3803C7.05473 25.608 7.06303 25.8408 7.11608 26.0654C7.16913 26.2899 7.26589 26.5019 7.40083 26.689C7.53577 26.8762 7.70626 27.0349 7.90255 27.1562C8.09885 27.2775 8.3171 27.3589 8.54487 27.3958C8.77263 27.4327 9.00543 27.4244 9.22999 27.3714C9.45454 27.3183 9.66645 27.2216 9.85361 27.0866C10.0408 26.9517 10.1995 26.7812 10.3208 26.5849C12.0241 23.8166 12.917 20.6261 12.898 17.3758C12.9181 14.1227 12.0253 10.9291 10.3208 8.15818C10.1995 7.96189 10.0408 7.7914 9.85361 7.65646C9.66645 7.52152 9.45454 7.42476 9.22999 7.37171C9.00543 7.31866 8.77263 7.31037 8.54487 7.34729C8.3171 7.38421 8.09885 7.46564 7.90255 7.58691C7.70626 7.70818 7.53577 7.86693 7.40083 8.05409C7.26589 8.24125 7.16913 8.45316 7.11608 8.67772C7.06303 8.90227 7.05473 9.13507 7.09166 9.36284C7.12858 9.5906 7.21001 9.80886 7.33128 10.0052H7.3141ZM13.7141 6.69779C15.6122 9.94858 16.6114 13.6458 16.6091 17.4102C16.6103 21.1717 15.6111 24.8659 13.7141 28.114C13.5973 28.3132 13.5209 28.5333 13.4892 28.762C13.4576 28.9906 13.4712 29.2232 13.5295 29.4466C13.5877 29.67 13.6893 29.8797 13.8286 30.0637C13.9679 30.2478 14.1421 30.4026 14.3412 30.5194C14.5403 30.6362 14.7605 30.7126 14.9891 30.7442C15.2177 30.7759 15.4504 30.7622 15.6737 30.704C15.8971 30.6458 16.1068 30.5441 16.2909 30.4048C16.4749 30.2656 16.6298 30.0914 16.7465 29.8923C18.9644 26.11 20.13 21.8033 20.1226 17.4188C20.1372 13.0182 18.9745 8.69374 16.7551 4.89377C16.5159 4.4905 16.1263 4.19878 15.672 4.08279C15.2176 3.96679 14.7359 4.03602 14.3326 4.27525C13.9293 4.51448 13.6376 4.90411 13.5216 5.35842C13.4056 5.81273 13.4748 6.29452 13.7141 6.69779ZM20.0883 3.34747C22.5298 7.6315 23.8091 12.4793 23.7994 17.4102C23.808 22.3383 22.5287 27.183 20.0883 31.4644C19.9754 31.6646 19.9032 31.8851 19.8756 32.1133C19.848 32.3414 19.8656 32.5728 19.9274 32.7942C19.9892 33.0155 20.0941 33.2226 20.2359 33.4034C20.3777 33.5843 20.5538 33.7354 20.754 33.8482C20.9543 33.9611 21.1748 34.0333 21.4029 34.0609C21.6311 34.0885 21.8625 34.0709 22.0838 34.0091C22.3052 33.9473 22.5122 33.8424 22.6931 33.7006C22.8739 33.5588 23.0251 33.3827 23.1379 33.1825C25.8796 28.3691 27.3186 22.9239 27.3129 17.3844C27.3257 11.8305 25.8864 6.36966 23.1379 1.54345C22.9101 1.13904 22.5309 0.841707 22.0838 0.716852C21.6368 0.591996 21.1584 0.649849 20.754 0.877685C20.3496 1.10552 20.0523 1.48468 19.9274 1.93174C19.8026 2.3788 19.8604 2.85716 20.0883 3.26156" fill="white"></path>
</svg>
