<svg width="40" height="40" viewBox="0 0 40 40" fill="none" xmlns="http://www.w3.org/2000/svg">
<path d="M36.6667 25.8333C36.6667 30.4357 32.9357 34.1667 28.3333 34.1667C26.8409 34.1667 25.4401 33.7743 24.2284 33.0872C22.0953 31.8774 20.5483 29.7538 20.1197 27.2486C20.041 26.7886 20 26.3158 20 25.8333C20 23.6936 20.8065 21.7422 22.1321 20.2665C23.6577 18.5682 25.8708 17.5 28.3333 17.5C32.9357 17.5 36.6667 21.231 36.6667 25.8333Z" stroke="#E36139" stroke-width="3" stroke-linecap="round" stroke-linejoin="round"></path>
<path d="M28.333 10V16.6667V17.5C25.8704 17.5 23.6573 18.5682 22.1318 20.2665C20.8062 21.7422 19.9997 23.6936 19.9997 25.8333C19.9997 26.3158 20.0407 26.7886 20.1193 27.2486C20.5479 29.7538 22.0949 31.8774 24.2281 33.0872C22.0093 33.758 19.0643 34.1667 15.833 34.1667C8.92942 34.1667 3.33301 32.3012 3.33301 30V23.3333V16.6667V10" stroke="#E36139" stroke-width="3" stroke-linecap="round" stroke-linejoin="round"></path>
<path d="M28.333 9.9987C28.333 12.2999 22.7366 14.1654 15.833 14.1654C8.92942 14.1654 3.33301 12.2999 3.33301 9.9987C3.33301 7.69751 8.92942 5.83203 15.833 5.83203C22.7366 5.83203 28.333 7.69751 28.333 9.9987Z" stroke="#E36139" stroke-width="3" stroke-linecap="round" stroke-linejoin="round"></path>
<path d="M3.33301 23.332C3.33301 25.6332 8.92942 27.4987 15.833 27.4987C17.3388 27.4987 18.7824 27.4099 20.1193 27.2473" stroke="#E36139" stroke-width="3" stroke-linecap="round" stroke-linejoin="round"></path>
<path d="M3.33301 16.668C3.33301 18.9691 8.92942 20.8346 15.833 20.8346C18.1299 20.8346 20.2822 20.6281 22.1318 20.2678" stroke="#E36139" stroke-width="3" stroke-linecap="round" stroke-linejoin="round"></path>
<path d="M32.0833 24.168L27.5 28.7513L25 26.2513" stroke="#E36139" stroke-width="3" stroke-linecap="round" stroke-linejoin="round"></path>
</svg>
