<svg width="229" height="229" viewBox="0 0 229 229" fill="none" xmlns="http://www.w3.org/2000/svg">
<g opacity="0.1" clip-path="url('#clip0_298_891')">
<path d="M87.5977 0.957031C149.497 0.957026 199.676 51.1364 199.676 113.036L199.676 116.065C199.676 177.964 149.497 228.144 87.5977 228.144L87.5977 0.957031Z" fill="#A3291C"></path>
<path d="M87.5953 170.59C117.709 170.59 142.12 145.501 142.12 114.551C142.12 83.6014 117.709 58.5117 87.5953 58.5117L87.5953 170.59Z" fill="#E56C43"></path>
<path d="M87.5968 170.59C55.8107 170.59 30.043 145.501 30.043 114.551C30.043 83.6014 55.8107 58.5117 87.5968 58.5117L87.5968 170.59Z" fill="#A3291C"></path>
</g>
<defs>
<clipPath id="clip0_298_891">
<rect width="227.187" height="227.187" fill="white" transform="matrix(-1 0 0 1 228.073 0.957031)"></rect>
</clipPath>
</defs>
</svg>
