<svg width="272" height="63" viewBox="0 0 272 63" fill="none" xmlns="http://www.w3.org/2000/svg">
<g clip-path="url('#clip0_298_960')">
<path d="M38.8115 0C21.7094 -1.50061e-06 7.84537 13.864 7.84537 30.9661L7.84537 32.0339C7.84537 49.136 21.7094 63 38.8115 63L38.8115 0Z" fill="#E36139"></path>
<path d="M38.8127 47.0409C30.4927 47.0409 23.748 40.0834 23.748 31.5009C23.748 22.9184 30.4927 15.9609 38.8127 15.9609L38.8127 47.0409Z" fill="#FDEBD7"></path>
<path d="M38.8123 47.0409C47.5945 47.0409 54.7139 40.0834 54.7139 31.5009C54.7139 22.9184 47.5945 15.9609 38.8123 15.9609L38.8123 47.0409Z" fill="#FCD2B0"></path>
</g>
<path d="M83.2388 48.3008C80.4775 48.3008 77.9303 47.5703 75.5972 46.1093C73.2642 44.6483 71.411 42.6804 70.0377 40.2056C68.6792 37.7159 68 35.0026 68 32.0657C68 29.1139 68.6792 26.4006 70.0377 23.9258C71.411 21.4361 73.2642 19.4682 75.5972 18.0221C77.9303 16.5611 80.4775 15.8306 83.2388 15.8306C85.6899 15.8306 87.9713 16.4046 90.0829 17.5525C92.2092 18.7004 93.9886 20.2733 95.4209 22.271L90.6809 24.8426C89.7654 23.7096 88.658 22.8226 87.3585 22.1815C86.0591 21.5256 84.6858 21.1976 83.2388 21.1976C81.4373 21.1976 79.7761 21.6895 78.2551 22.6735C76.7342 23.6425 75.5308 24.9619 74.6448 26.6316C73.7588 28.3014 73.3158 30.1127 73.3158 32.0657C73.3158 34.0187 73.7588 35.83 74.6448 37.4998C75.5455 39.1695 76.7564 40.4963 78.2773 41.4803C79.7982 42.4493 81.452 42.9338 83.2388 42.9338C84.7006 42.9338 86.0813 42.6058 87.3807 41.9499C88.6801 41.2939 89.7802 40.392 90.6809 39.244L95.4209 41.8604C93.9886 43.8581 92.2092 45.4309 90.0829 46.5789C87.9713 47.7268 85.6899 48.3008 83.2388 48.3008Z" fill="white"></path>
<path d="M107.346 48.3008C105.338 48.3008 103.485 47.7715 101.787 46.7131C100.103 45.6546 98.7597 44.2308 97.7556 42.4418C96.7662 40.6379 96.2716 38.67 96.2716 36.5382C96.2716 34.3914 96.7662 32.416 97.7556 30.6121C98.7597 28.8082 100.103 27.377 101.787 26.3186C103.485 25.2601 105.338 24.7308 107.346 24.7308C109.354 24.7308 111.2 25.2601 112.884 26.3186C114.582 27.377 115.925 28.8082 116.915 30.6121C117.919 32.416 118.421 34.3914 118.421 36.5382C118.421 38.67 117.919 40.6379 116.915 42.4418C115.925 44.2308 114.582 45.6546 112.884 46.7131C111.2 47.7715 109.354 48.3008 107.346 48.3008ZM107.346 42.9338C108.409 42.9338 109.377 42.6431 110.248 42.0617C111.134 41.4803 111.828 40.6976 112.33 39.7136C112.847 38.7297 113.105 37.6712 113.105 36.5382C113.105 35.3753 112.847 34.3019 112.33 33.318C111.813 32.334 111.112 31.5514 110.226 30.9699C109.34 30.3885 108.38 30.0978 107.346 30.0978C106.298 30.0978 105.331 30.396 104.445 30.9923C103.559 31.5737 102.857 32.3564 102.34 33.3403C101.838 34.3243 101.587 35.3902 101.587 36.5382C101.587 37.7159 101.846 38.7968 102.363 39.7807C102.894 40.7498 103.596 41.5175 104.467 42.084C105.353 42.6506 106.313 42.9338 107.346 42.9338Z" fill="white"></path>
<path d="M143.197 47.7194H137.882V44.857C137.128 45.9304 136.206 46.7727 135.113 47.3839C134.02 47.9952 132.78 48.3008 131.392 48.3008C129.28 48.3008 127.331 47.7715 125.544 46.7131C123.772 45.6546 122.362 44.2308 121.314 42.4418C120.265 40.6379 119.741 38.67 119.741 36.5382C119.741 34.4063 120.265 32.4384 121.314 30.6345C122.362 28.8306 123.772 27.3994 125.544 26.3409C127.331 25.2824 129.28 24.7532 131.392 24.7532C132.78 24.7532 134.02 25.0588 135.113 25.67C136.206 26.2813 137.128 27.1236 137.882 28.197V14.1758H143.197V47.7194ZM131.458 43.1351C132.595 43.1351 133.614 42.8444 134.515 42.2629C135.43 41.6666 136.139 40.869 136.641 39.8702C137.158 38.8564 137.416 37.7457 137.416 36.5382C137.416 35.3157 137.158 34.205 136.641 33.2062C136.139 32.1924 135.43 31.3948 134.515 30.8134C133.614 30.2171 132.595 29.9189 131.458 29.9189C130.336 29.9189 129.295 30.2171 128.335 30.8134C127.375 31.4097 126.608 32.2148 126.032 33.2285C125.471 34.2274 125.19 35.3306 125.19 36.5382C125.19 37.7308 125.471 38.834 126.032 39.8478C126.608 40.8616 127.375 41.6666 128.335 42.2629C129.295 42.8444 130.336 43.1351 131.458 43.1351Z" fill="white"></path>
<path d="M169.787 47.7194H164.471V44.8346C163.718 45.908 162.788 46.7578 161.68 47.3839C160.588 47.9952 159.355 48.3008 157.981 48.3008C155.87 48.3008 153.921 47.7715 152.134 46.7131C150.362 45.6546 148.952 44.2308 147.903 42.4418C146.855 40.6379 146.331 38.67 146.331 36.5382C146.331 34.3914 146.855 32.416 147.903 30.6121C148.952 28.8082 150.362 27.377 152.134 26.3186C153.921 25.2601 155.87 24.7308 157.981 24.7308C159.369 24.7308 160.61 25.0439 161.702 25.67C162.795 26.2813 163.718 27.1236 164.471 28.197V25.357H169.787V47.7194ZM158.048 43.1351C159.185 43.1351 160.204 42.8369 161.104 42.2406C162.02 41.6442 162.729 40.8467 163.231 39.8478C163.748 38.834 164.006 37.7308 164.006 36.5382C164.006 35.3157 163.748 34.205 163.231 33.2062C162.729 32.1924 162.02 31.3948 161.104 30.8134C160.204 30.2171 159.185 29.9189 158.048 29.9189C156.911 29.9189 155.862 30.2171 154.903 30.8134C153.943 31.3948 153.182 32.1924 152.621 33.2062C152.06 34.2199 151.78 35.3306 151.78 36.5382C151.78 37.7308 152.06 38.834 152.621 39.8478C153.197 40.8616 153.965 41.6666 154.925 42.2629C155.885 42.8444 156.926 43.1351 158.048 43.1351Z" fill="white"></path>
<path d="M185.957 24.7308C188.083 24.7308 190.04 25.2601 191.827 26.3186C193.613 27.377 195.031 28.8082 196.079 30.6121C197.128 32.4011 197.652 34.3616 197.652 36.4934C197.652 38.6402 197.128 40.6156 196.079 42.4195C195.031 44.2234 193.613 45.6546 191.827 46.7131C190.04 47.7715 188.083 48.3008 185.957 48.3008C184.599 48.3008 183.373 47.9952 182.28 47.3839C181.188 46.7578 180.265 45.908 179.512 44.8346V47.7194H174.196V14.1758H179.512V28.197C180.265 27.1236 181.188 26.2813 182.28 25.67C183.373 25.0439 184.599 24.7308 185.957 24.7308ZM185.891 43.0903C187.042 43.0903 188.098 42.7996 189.058 42.2182C190.033 41.6219 190.8 40.8168 191.361 39.8031C191.923 38.7893 192.203 37.6861 192.203 36.4934C192.203 35.3008 191.915 34.1976 191.339 33.1838C190.778 32.17 190.01 31.3725 189.036 30.791C188.076 30.1947 187.028 29.8965 185.891 29.8965C184.768 29.8965 183.757 30.1947 182.856 30.791C181.955 31.3874 181.247 32.1924 180.73 33.2062C180.228 34.205 179.977 35.3008 179.977 36.4934C179.977 37.701 180.228 38.8117 180.73 39.8254C181.247 40.8243 181.955 41.6219 182.856 42.2182C183.757 42.7996 184.768 43.0903 185.891 43.0903Z" fill="white"></path>
<path d="M222.653 47.7194H217.337V44.8346C216.584 45.908 215.654 46.7578 214.546 47.3839C213.454 47.9952 212.221 48.3008 210.847 48.3008C208.736 48.3008 206.787 47.7715 205 46.7131C203.228 45.6546 201.818 44.2308 200.769 42.4418C199.721 40.6379 199.197 38.67 199.197 36.5382C199.197 34.3914 199.721 32.416 200.769 30.6121C201.818 28.8082 203.228 27.377 205 26.3186C206.787 25.2601 208.736 24.7308 210.847 24.7308C212.235 24.7308 213.476 25.0439 214.568 25.67C215.661 26.2813 216.584 27.1236 217.337 28.197V25.357H222.653V47.7194ZM210.914 43.1351C212.051 43.1351 213.07 42.8369 213.97 42.2406C214.886 41.6442 215.595 40.8467 216.097 39.8478C216.614 38.834 216.872 37.7308 216.872 36.5382C216.872 35.3157 216.614 34.205 216.097 33.2062C215.595 32.1924 214.886 31.3948 213.97 30.8134C213.07 30.2171 212.051 29.9189 210.914 29.9189C209.777 29.9189 208.728 30.2171 207.769 30.8134C206.809 31.3948 206.048 32.1924 205.487 33.2062C204.926 34.2199 204.646 35.3306 204.646 36.5382C204.646 37.7308 204.926 38.834 205.487 39.8478C206.063 40.8616 206.831 41.6666 207.791 42.2629C208.751 42.8444 209.792 43.1351 210.914 43.1351Z" fill="white"></path>
<path d="M242.832 47.7194V36.2251C242.832 35.0772 242.588 34.0187 242.101 33.0496C241.629 32.0806 240.964 31.3128 240.108 30.7463C239.251 30.1798 238.284 29.8965 237.206 29.8965C236.158 29.8965 235.235 30.1798 234.437 30.7463C233.64 31.3128 233.02 32.0806 232.577 33.0496C232.149 34.0038 231.935 35.0623 231.935 36.2251V47.7194H226.619V25.357H231.935V28.0405C232.702 26.9969 233.603 26.1844 234.637 25.603C235.685 25.0215 236.844 24.7308 238.114 24.7308C240.093 24.7308 241.835 25.2452 243.342 26.2738C244.862 27.2876 246.036 28.6666 246.863 30.4109C247.69 32.1402 248.118 34.0485 248.148 36.1356V47.7194H242.832Z" fill="white"></path>
<path d="M265.865 47.7194L260.77 38.8639L257.625 42.6431V47.7194H252.309V14.1758H257.625V34.3019L265.045 25.357H272L264.425 34.4808L272 47.7194H265.865Z" fill="white"></path>
<defs>
<clipPath id="clip0_298_960">
<rect width="62.7692" height="63" fill="white"></rect>
</clipPath>
</defs>
</svg>
