<svg width="128" height="30" viewBox="0 0 128 30" fill="none" xmlns="http://www.w3.org/2000/svg">
<path d="M34.6013 24.0167L34.4715 24.7191C34.7113 24.4494 34.9512 24.2509 35.1911 24.1235C35.4309 23.9924 35.7002 23.9268 35.9991 23.9268C36.4552 23.9268 36.8405 24.0298 37.1551 24.2359C37.4736 24.4382 37.7154 24.7191 37.8805 25.0788C38.1676 24.7042 38.4939 24.4194 38.8596 24.2246C39.2292 24.0261 39.6303 23.9268 40.0628 23.9268C40.5071 23.9268 40.8944 24.0261 41.2247 24.2246C41.5589 24.4232 41.8145 24.6948 41.9914 25.0395C42.1723 25.3804 42.2627 25.7606 42.2627 26.1802C42.2627 26.3225 42.2509 26.4705 42.2273 26.6241L41.785 29.6361H40.7233L41.1775 26.5679C41.1932 26.4668 41.2011 26.3563 41.2011 26.2364C41.2011 25.8505 41.0969 25.5377 40.8885 25.2979C40.684 25.0582 40.397 24.9383 40.0274 24.9383C39.7286 24.9383 39.4494 25.0151 39.1899 25.1687C38.9304 25.3185 38.7141 25.5227 38.5411 25.7812C38.372 26.0397 38.2659 26.3207 38.2226 26.6241L37.7803 29.6361H36.7186L37.1669 26.5679C37.1826 26.478 37.1905 26.3769 37.1905 26.2645C37.1905 26.0097 37.1413 25.7831 37.043 25.5845C36.9447 25.3822 36.8032 25.2249 36.6184 25.1125C36.4336 24.9964 36.2153 24.9383 35.9637 24.9383C35.6845 24.9383 35.4171 25.0188 35.1616 25.1799C34.9099 25.341 34.6976 25.5564 34.5246 25.8262C34.3555 26.0921 34.2493 26.3769 34.2061 26.6803L33.7696 29.6361H32.708L33.5337 24.0167H34.6013Z" fill="white"></path>
<path d="M45.5977 29.7822C45.1023 29.7822 44.656 29.6698 44.2589 29.445C43.8657 29.2165 43.557 28.9075 43.3329 28.5178C43.1127 28.1245 43.0026 27.6881 43.0026 27.2085C43.0026 27.0362 43.0125 26.8901 43.0321 26.7702C43.1108 26.242 43.3133 25.755 43.6396 25.3092C43.966 24.8634 44.369 24.5112 44.8487 24.2527C45.3284 23.9905 45.8297 23.8594 46.3527 23.8594C46.8481 23.8594 47.2924 23.9718 47.6856 24.1965C48.0827 24.4213 48.3934 24.7304 48.6175 25.1237C48.8416 25.5171 48.9537 25.9535 48.9537 26.4331C48.9537 26.5792 48.9419 26.729 48.9183 26.8826C48.8396 27.4071 48.6372 27.8922 48.3108 28.338C47.9884 28.7801 47.5853 29.1322 47.1017 29.3945C46.622 29.653 46.1207 29.7822 45.5977 29.7822ZM45.6272 28.7707C45.985 28.7707 46.3271 28.6789 46.6535 28.4954C46.9798 28.3118 47.2511 28.0683 47.4674 27.7649C47.6836 27.4577 47.8173 27.1261 47.8685 26.7702C47.8842 26.6803 47.892 26.581 47.892 26.4724C47.892 26.1764 47.8252 25.9067 47.6915 25.6632C47.5578 25.4197 47.3711 25.2268 47.1312 25.0844C46.8914 24.942 46.622 24.8709 46.3232 24.8709C45.9654 24.8709 45.6233 24.9627 45.2969 25.1462C44.9745 25.3298 44.7032 25.577 44.483 25.888C44.2668 26.1952 44.1331 26.5267 44.082 26.8826C44.0662 26.9725 44.0584 27.0699 44.0584 27.1748C44.0584 27.4745 44.1252 27.7461 44.2589 27.9896C44.3965 28.2331 44.5853 28.4242 44.8251 28.5628C45.065 28.7014 45.3323 28.7707 45.6272 28.7707Z" fill="white"></path>
<path d="M53.3689 23.8594C53.8919 23.8594 54.3618 23.9736 54.7786 24.2022C55.1993 24.4269 55.5276 24.7379 55.7635 25.135C56.0034 25.5283 56.1233 25.9666 56.1233 26.4499C56.1233 26.611 56.1135 26.7534 56.0938 26.877C56.0152 27.4052 55.8068 27.8922 55.4686 28.338C55.1305 28.7801 54.7078 29.1322 54.2006 29.3945C53.6973 29.653 53.1684 29.7822 52.614 29.7822C52.1736 29.7822 51.7981 29.6848 51.4875 29.49C51.1808 29.2915 50.9488 29.0255 50.7915 28.692L50.6323 29.6361H49.5707L50.8151 21.207H51.8768L51.3106 24.9046C51.5622 24.5787 51.865 24.3239 52.2188 24.1403C52.5727 23.953 52.9561 23.8594 53.3689 23.8594ZM52.6317 28.7988C53.0092 28.7988 53.3709 28.707 53.7169 28.5235C54.0669 28.3399 54.3578 28.0926 54.5898 27.7817C54.8257 27.4708 54.9712 27.1317 55.0263 26.7646C55.042 26.6372 55.0499 26.5454 55.0499 26.4893C55.0499 26.1783 54.9752 25.8973 54.8257 25.6463C54.6763 25.3953 54.4699 25.1987 54.2065 25.0563C53.9469 24.9102 53.656 24.8372 53.3336 24.8372C52.96 24.8372 52.614 24.9289 52.2955 25.1125C51.981 25.2961 51.7214 25.5433 51.517 25.8543C51.3125 26.1652 51.1828 26.5061 51.1277 26.877C51.112 26.9819 51.1041 27.0961 51.1041 27.2198C51.1041 27.5232 51.1651 27.7948 51.287 28.0346C51.4089 28.2706 51.5838 28.4579 51.8119 28.5965C52.0439 28.7314 52.3171 28.7988 52.6317 28.7988Z" fill="white"></path>
<path d="M58.279 23.1738C58.1257 23.1738 57.9959 23.1232 57.8897 23.0221C57.7836 22.9209 57.7305 22.7973 57.7305 22.6512C57.7305 22.4976 57.7895 22.3646 57.9074 22.2522C58.0254 22.1361 58.163 22.078 58.3203 22.078C58.4776 22.078 58.6093 22.1305 58.7155 22.2354C58.8216 22.3365 58.8747 22.4602 58.8747 22.6063C58.8747 22.7561 58.8137 22.8891 58.6919 23.0052C58.5739 23.1176 58.4363 23.1738 58.279 23.1738ZM58.6034 24.0167L57.7777 29.6361H56.716L57.5418 24.0167H58.6034Z" fill="white"></path>
<path d="M60.7122 21.207H61.7738L60.5294 29.6305H59.4677L60.7122 21.207Z" fill="white"></path>
<path d="M64.7772 29.7822C64.2817 29.7822 63.8355 29.6698 63.4383 29.445C63.0451 29.2165 62.7365 28.9056 62.5124 28.5122C62.2922 28.1189 62.1821 27.6824 62.1821 27.2029C62.1821 27.0306 62.1919 26.8845 62.2116 26.7646C62.2902 26.2364 62.4927 25.7512 62.8191 25.3092C63.1454 24.8634 63.5484 24.5112 64.0281 24.2527C64.5078 23.9905 65.0092 23.8594 65.5321 23.8594C66.0393 23.8594 66.4876 23.9718 66.8769 24.1965C67.2701 24.4213 67.5728 24.7304 67.7851 25.1237C68.0014 25.5134 68.1095 25.9517 68.1095 26.4387C68.1095 26.6897 68.08 26.9482 68.0211 27.2142H63.2732C63.2732 27.5139 63.3361 27.7817 63.4619 28.0177C63.5917 28.2537 63.7726 28.4392 64.0045 28.574C64.2365 28.7052 64.5039 28.7707 64.8067 28.7707C65.1527 28.7707 65.479 28.6864 65.7857 28.5178C66.0964 28.3493 66.3618 28.1189 66.582 27.8267L67.6495 28.1133C67.3349 28.619 66.9201 29.0236 66.405 29.327C65.8899 29.6305 65.3473 29.7822 64.7772 29.7822ZM67.0774 26.3712C67.0852 26.0753 67.0223 25.8037 66.8886 25.5564C66.7589 25.3092 66.5741 25.1144 66.3342 24.972C66.0944 24.8297 65.8231 24.7585 65.5203 24.7585C65.1979 24.7585 64.8892 24.8334 64.5943 24.9833C64.2994 25.1294 64.0439 25.3298 63.8276 25.5845C63.6153 25.8393 63.4639 26.1202 63.3735 26.4274L67.0774 26.3712Z" fill="white"></path>
<g clip-path="url('#clip0_298_890')">
<path d="M19.084 0.382812C11.1015 0.382812 4.6304 6.8539 4.6304 14.8364L4.6304 15.3299C4.6304 23.3123 11.1015 29.7834 19.084 29.7834L19.084 0.382812Z" fill="#EE9168"></path>
<path d="M19.0842 22.3363C15.2008 22.3363 12.0527 19.0894 12.0527 15.0842C12.0527 11.0789 15.2008 7.83203 19.0842 7.83203L19.0842 22.3363Z" fill="#FDEBD7"></path>
<path d="M19.0847 22.3363C23.1838 22.3363 26.5068 19.0894 26.5068 15.0842C26.5068 11.0789 23.1838 7.83203 19.0847 7.83203L19.0847 22.3363Z" fill="#FCD2B0"></path>
</g>
<path d="M39.8208 16.3081C38.5319 16.3081 37.343 15.9672 36.254 15.2854C35.1651 14.6036 34.3001 13.6852 33.6591 12.5303C33.025 11.3684 32.708 10.1022 32.708 8.73161C32.708 7.35406 33.025 6.08782 33.6591 4.93291C34.3001 3.77103 35.1651 2.85267 36.254 2.1778C37.343 1.49599 38.5319 1.15508 39.8208 1.15508C40.9649 1.15508 42.0297 1.42293 43.0153 1.95865C44.0078 2.49436 44.8383 3.22836 45.5068 4.16064L43.2944 5.36078C42.8671 4.83203 42.3502 4.41806 41.7437 4.1189C41.1372 3.81278 40.4962 3.65972 39.8208 3.65972C38.9799 3.65972 38.2045 3.88931 37.4946 4.34849C36.7847 4.80072 36.223 5.41644 35.8095 6.19566C35.396 6.97488 35.1892 7.8202 35.1892 8.73161C35.1892 9.64302 35.396 10.4883 35.8095 11.2676C36.2299 12.0468 36.7951 12.666 37.505 13.1252C38.2149 13.5774 38.9868 13.8035 39.8208 13.8035C40.5031 13.8035 41.1475 13.6504 41.754 13.3443C42.3605 13.0382 42.874 12.6173 43.2944 12.0816L45.5068 13.3026C44.8383 14.2349 44.0078 14.9689 43.0153 15.5046C42.0297 16.0403 40.9649 16.3081 39.8208 16.3081Z" fill="white"></path>
<path d="M51.073 16.3081C50.1357 16.3081 49.2707 16.0612 48.4781 15.5672C47.6924 15.0732 47.0652 14.4088 46.5966 13.5739C46.1348 12.7321 45.9039 11.8137 45.9039 10.8188C45.9039 9.81695 46.1348 8.89511 46.5966 8.05327C47.0652 7.21143 47.6924 6.54353 48.4781 6.04956C49.2707 5.55559 50.1357 5.3086 51.073 5.3086C52.0104 5.3086 52.8719 5.55559 53.6576 6.04956C54.4502 6.54353 55.0774 7.21143 55.5392 8.05327C56.0079 8.89511 56.2422 9.81695 56.2422 10.8188C56.2422 11.8137 56.0079 12.7321 55.5392 13.5739C55.0774 14.4088 54.4502 15.0732 53.6576 15.5672C52.8719 16.0612 52.0104 16.3081 51.073 16.3081ZM51.073 13.8035C51.5693 13.8035 52.0207 13.6678 52.4274 13.3965C52.8409 13.1252 53.1648 12.7599 53.3992 12.3007C53.6404 11.8415 53.761 11.3476 53.761 10.8188C53.761 10.2761 53.6404 9.77521 53.3992 9.31603C53.1579 8.85684 52.8305 8.49158 52.417 8.22025C52.0035 7.94891 51.5555 7.81324 51.073 7.81324C50.5837 7.81324 50.1323 7.95239 49.7187 8.23068C49.3052 8.50202 48.9778 8.86728 48.7366 9.32646C48.5022 9.78565 48.3851 10.2831 48.3851 10.8188C48.3851 11.3684 48.5057 11.8728 48.7469 12.332C48.995 12.7843 49.3224 13.1426 49.7291 13.4069C50.1426 13.6713 50.5906 13.8035 51.073 13.8035Z" fill="white"></path>
<path d="M67.8067 16.0368H65.3255V14.701C64.974 15.2019 64.5433 15.595 64.0332 15.8803C63.5232 16.1655 62.9443 16.3081 62.2964 16.3081C61.3108 16.3081 60.401 16.0612 59.5671 15.5672C58.74 15.0732 58.0818 14.4088 57.5925 13.5739C57.1031 12.7321 56.8584 11.8137 56.8584 10.8188C56.8584 9.82391 57.1031 8.90554 57.5925 8.06371C58.0818 7.22187 58.74 6.55397 59.5671 6.06C60.401 5.56602 61.3108 5.31904 62.2964 5.31904C62.9443 5.31904 63.5232 5.46166 64.0332 5.74691C64.5433 6.03217 64.974 6.42525 65.3255 6.92618V0.382812H67.8067V16.0368ZM62.3274 13.8974C62.8581 13.8974 63.3337 13.7618 63.7541 13.4904C64.1814 13.2121 64.5122 12.8399 64.7466 12.3738C64.9878 11.9007 65.1084 11.3824 65.1084 10.8188C65.1084 10.2483 64.9878 9.72999 64.7466 9.26385C64.5122 8.79075 64.1814 8.41853 63.7541 8.14719C63.3337 7.8689 62.8581 7.72975 62.3274 7.72975C61.8036 7.72975 61.3177 7.8689 60.8697 8.14719C60.4217 8.42549 60.0633 8.80118 59.7945 9.27428C59.5326 9.74042 59.4017 10.2553 59.4017 10.8188C59.4017 11.3754 59.5326 11.8902 59.7945 12.3633C60.0633 12.8364 60.4217 13.2121 60.8697 13.4904C61.3177 13.7618 61.8036 13.8974 62.3274 13.8974Z" fill="white"></path>
<path d="M80.2175 16.0368H77.7363V14.6906C77.3848 15.1915 76.9506 15.5881 76.4337 15.8803C75.9237 16.1655 75.3482 16.3081 74.7072 16.3081C73.7216 16.3081 72.8119 16.0612 71.9779 15.5672C71.1508 15.0732 70.4926 14.4088 70.0033 13.5739C69.5139 12.7321 69.2693 11.8137 69.2693 10.8188C69.2693 9.81695 69.5139 8.89511 70.0033 8.05327C70.4926 7.21143 71.1508 6.54353 71.9779 6.04956C72.8119 5.55559 73.7216 5.3086 74.7072 5.3086C75.3551 5.3086 75.934 5.45471 76.444 5.74691C76.9541 6.03217 77.3848 6.42525 77.7363 6.92618V5.60081H80.2175V16.0368ZM74.7382 13.8974C75.2689 13.8974 75.7445 13.7583 76.1649 13.48C76.5922 13.2017 76.9231 12.8295 77.1574 12.3633C77.3986 11.8902 77.5192 11.3754 77.5192 10.8188C77.5192 10.2483 77.3986 9.72999 77.1574 9.26385C76.9231 8.79075 76.5922 8.41853 76.1649 8.14719C75.7445 7.8689 75.2689 7.72975 74.7382 7.72975C74.2075 7.72975 73.7182 7.8689 73.2702 8.14719C72.8222 8.41853 72.4672 8.79075 72.2053 9.26385C71.9434 9.73694 71.8125 10.2553 71.8125 10.8188C71.8125 11.3754 71.9434 11.8902 72.2053 12.3633C72.4741 12.8364 72.8325 13.2121 73.2805 13.4904C73.7285 13.7618 74.2144 13.8974 74.7382 13.8974Z" fill="white"></path>
<path d="M87.765 5.3086C88.7575 5.3086 89.6707 5.55559 90.5046 6.04956C91.3386 6.54353 92.0002 7.21143 92.4896 8.05327C92.9789 8.88815 93.2236 9.80304 93.2236 10.7979C93.2236 11.7998 92.9789 12.7216 92.4896 13.5635C92.0002 14.4053 91.3386 15.0732 90.5046 15.5672C89.6707 16.0612 88.7575 16.3081 87.765 16.3081C87.1309 16.3081 86.5588 16.1655 86.0488 15.8803C85.5388 15.5881 85.108 15.1915 84.7565 14.6906V16.0368H82.2753V0.382812H84.7565V6.92618C85.108 6.42525 85.5388 6.03217 86.0488 5.74691C86.5588 5.45471 87.1309 5.3086 87.765 5.3086ZM87.734 13.8766C88.2715 13.8766 88.7643 13.7409 89.2123 13.4696C89.6672 13.1913 90.0256 12.8156 90.2875 12.3425C90.5494 11.8694 90.6804 11.3545 90.6804 10.7979C90.6804 10.2414 90.546 9.72651 90.2772 9.25341C90.0153 8.78031 89.6569 8.40809 89.202 8.13676C88.754 7.85847 88.2647 7.71932 87.734 7.71932C87.2101 7.71932 86.738 7.85847 86.3176 8.13676C85.8972 8.41505 85.5664 8.79075 85.3251 9.26385C85.0908 9.72999 84.9736 10.2414 84.9736 10.7979C84.9736 11.3615 85.0908 11.8798 85.3251 12.3529C85.5664 12.819 85.8972 13.1913 86.3176 13.4696C86.738 13.7409 87.2101 13.8766 87.734 13.8766Z" fill="white"></path>
<path d="M104.893 16.0368H102.412V14.6906C102.06 15.1915 101.626 15.5881 101.109 15.8803C100.599 16.1655 100.024 16.3081 99.3826 16.3081C98.3971 16.3081 97.4873 16.0612 96.6533 15.5672C95.8263 15.0732 95.1681 14.4088 94.6787 13.5739C94.1894 12.7321 93.9447 11.8137 93.9447 10.8188C93.9447 9.81695 94.1894 8.89511 94.6787 8.05327C95.1681 7.21143 95.8263 6.54353 96.6533 6.04956C97.4873 5.55559 98.3971 5.3086 99.3826 5.3086C100.031 5.3086 100.609 5.45471 101.119 5.74691C101.63 6.03217 102.06 6.42525 102.412 6.92618V5.60081H104.893V16.0368ZM99.4137 13.8974C99.9444 13.8974 100.42 13.7583 100.84 13.48C101.268 13.2017 101.598 12.8295 101.833 12.3633C102.074 11.8902 102.195 11.3754 102.195 10.8188C102.195 10.2483 102.074 9.72999 101.833 9.26385C101.598 8.79075 101.268 8.41853 100.84 8.14719C100.42 7.8689 99.9444 7.72975 99.4137 7.72975C98.883 7.72975 98.3936 7.8689 97.9456 8.14719C97.4976 8.41853 97.1427 8.79075 96.8808 9.26385C96.6189 9.73694 96.4879 10.2553 96.4879 10.8188C96.4879 11.3754 96.6189 11.8902 96.8808 12.3633C97.1496 12.8364 97.508 13.2121 97.956 13.4904C98.404 13.7618 98.8899 13.8974 99.4137 13.8974Z" fill="white"></path>
<path d="M114.312 16.0368V10.6727C114.312 10.137 114.198 9.64302 113.97 9.19079C113.75 8.73857 113.44 8.38027 113.04 8.11589C112.64 7.85151 112.189 7.71932 111.686 7.71932C111.196 7.71932 110.766 7.85151 110.393 8.11589C110.021 8.38027 109.732 8.73857 109.525 9.19079C109.325 9.63606 109.225 10.13 109.225 10.6727V16.0368H106.744V5.60081H109.225V6.85313C109.584 6.36612 110.004 5.98694 110.486 5.71561C110.976 5.44427 111.517 5.3086 112.11 5.3086C113.033 5.3086 113.846 5.54863 114.549 6.02869C115.259 6.50179 115.807 7.14534 116.193 7.95935C116.579 8.7664 116.779 9.65693 116.793 10.631V16.0368H114.312Z" fill="white"></path>
<path d="M125.062 16.0368L122.684 11.9042L121.216 13.6678V16.0368H118.735V0.382812H121.216V9.77521L124.68 5.60081H127.926L124.39 9.8587L127.926 16.0368H125.062Z" fill="white"></path>
<defs>
<clipPath id="clip0_298_890">
<rect width="29.2978" height="29.4006" fill="white" transform="translate(0.96875 0.382812)"></rect>
</clipPath>
</defs>
</svg>
