<svg width="501" height="501" viewBox="0 0 501 501" fill="none" xmlns="http://www.w3.org/2000/svg">
<g opacity="0.16" clip-path="url('#clip0_298_872')">
<path d="M501 191.219C501 327.721 390.343 438.379 253.84 438.379L247.16 438.379C110.657 438.379 -1.62778e-06 327.722 0 191.219L501 191.219Z" fill="#EE9168"></path>
<path d="M126.92 191.215C126.92 257.622 182.249 311.455 250.5 311.455C318.751 311.455 374.08 257.622 374.08 191.215L126.92 191.215Z" fill="#FDEBD7"></path>
<path d="M126.92 191.217C126.92 121.121 182.249 64.2969 250.5 64.2969C318.751 64.2969 374.08 121.121 374.08 191.217L126.92 191.217Z" fill="#F6B187"></path>
</g>
<defs>
<clipPath id="clip0_298_872">
<rect width="501" height="501" fill="white" transform="matrix(1.19249e-08 -1 -1 -1.19249e-08 501 501)"></rect>
</clipPath>
</defs>
</svg>
