<svg width="64" height="64" viewBox="0 0 64 64" fill="none" xmlns="http://www.w3.org/2000/svg">
<path d="M29.6429 7.05157C31.0474 6.02702 32.9529 6.02702 34.3575 7.05157L37.9478 9.67052C38.6344 10.1714 39.4628 10.4405 40.3127 10.4389L44.7566 10.4305C46.4951 10.4272 48.0367 11.5472 48.5708 13.2016L49.9361 17.4308C50.1972 18.2396 50.7091 18.9442 51.3976 19.4425L54.9978 22.0477C56.4063 23.0669 56.9951 24.8792 56.4547 26.5316L55.0734 30.7554C54.8093 31.5632 54.8093 32.4342 55.0734 33.242L56.4547 37.4658C56.9951 39.1182 56.4063 40.9305 54.9978 41.9497L51.3976 44.5549C50.7091 45.0532 50.1972 45.7578 49.9361 46.5666L48.5708 50.7958C48.0367 52.4502 46.4952 53.5702 44.7567 53.5669L40.3126 53.5585C39.4627 53.5569 38.6344 53.826 37.9478 54.3269L34.3575 56.9459C32.9529 57.9704 31.0474 57.9704 29.6429 56.9459L26.0526 54.3269C25.3659 53.826 24.5376 53.5569 23.6877 53.5585L19.2437 53.5669C17.5052 53.5702 15.9636 52.4502 15.4295 50.7958L14.0643 46.5666C13.8032 45.7578 13.2913 45.0532 12.6027 44.5549L9.00251 41.9497C7.59407 40.9305 7.00523 39.1182 7.54562 37.4658L8.92691 33.242C9.1911 32.4342 9.1911 31.5632 8.92691 30.7554L7.54562 26.5316C7.00523 24.8792 7.59407 23.0669 9.0025 22.0477L12.6027 19.4425C13.2913 18.9442 13.8032 18.2396 14.0643 17.4308L15.4295 13.2016C15.9636 11.5472 17.5052 10.4272 19.2437 10.4305L23.6877 10.4389C24.5376 10.4405 25.3659 10.1714 26.0526 9.67052L29.6429 7.05157Z" fill="#6DD130" stroke="#6DD130" stroke-width="2" stroke-linecap="round" stroke-linejoin="round"></path>
<path d="M22.667 31.9987L29.3337 38.6654L42.667 25.332" stroke="white" stroke-width="4" stroke-linecap="round" stroke-linejoin="round"></path>
</svg>
