<svg width="100" height="100" viewBox="0 0 100 100" fill="none" xmlns="http://www.w3.org/2000/svg">
<circle cx="50" cy="50" r="50" fill="#54B862"></circle>
<path d="M75 38.875C75 40.525 73.65 41.875 72 41.875H28C26.35 41.875 25 40.525 25 38.875V38.85C25 33.125 29.625 28.5 35.35 28.5H64.625C70.35 28.5 75 33.15 75 38.875Z" fill="white"></path>
<path d="M25 48.625V61.15C25 66.875 29.625 71.5 35.35 71.5H64.625C70.35 71.5 75 66.85 75 61.125V48.625C75 46.975 73.65 45.625 72 45.625H28C26.35 45.625 25 46.975 25 48.625ZM40 63.125H35C33.975 63.125 33.125 62.275 33.125 61.25C33.125 60.225 33.975 59.375 35 59.375H40C41.025 59.375 41.875 60.225 41.875 61.25C41.875 62.275 41.025 63.125 40 63.125ZM56.25 63.125H46.25C45.225 63.125 44.375 62.275 44.375 61.25C44.375 60.225 45.225 59.375 46.25 59.375H56.25C57.275 59.375 58.125 60.225 58.125 61.25C58.125 62.275 57.275 63.125 56.25 63.125Z" fill="white"></path>
</svg>
